<svg width="15" height="16" viewBox="0 0 15 16" fill="none" xmlns="http://www.w3.org/2000/svg">
<g opacity="0.5">
<path d="M14.0372 5.03581L8.67552 0.478478H8.67575C8.31228 0.169697 7.85087 0 7.37378 0C6.89693 0 6.4355 0.169697 6.07204 0.478478L0.710348 5.03581C0.260389 5.41729 0.000718068 5.97708 0 6.56709V13.9895C0 14.5227 0.211776 15.0341 0.588803 15.4112C0.965831 15.7882 1.47729 16 2.01046 16H4.35633C4.80068 16 5.2268 15.8235 5.54096 15.5093C5.85511 15.195 6.03182 14.7688 6.03182 14.3245V11.4728C6.03346 11.0128 6.40605 10.6402 6.86604 10.6386H7.87139C8.09368 10.6376 8.30709 10.7251 8.46487 10.8814C8.62242 11.038 8.71171 11.2508 8.71241 11.4728V14.3245C8.71241 14.7688 8.88912 15.195 9.20327 15.5094C9.51743 15.8235 9.94354 16 10.3879 16H12.7338C13.267 16 13.7784 15.7882 14.1554 15.4112C14.5325 15.0342 14.7442 14.5227 14.7442 13.9895V6.56712C14.7445 5.97784 14.4859 5.41803 14.0372 5.03584L14.0372 5.03581ZM13.404 13.9895C13.404 14.1672 13.3334 14.3376 13.2077 14.4633C13.0819 14.5891 12.9115 14.6597 12.7338 14.6597H10.388C10.2031 14.6597 10.053 14.5096 10.053 14.3245V11.4728C10.0521 10.8964 9.82277 10.3438 9.41513 9.93588C9.00725 9.52823 8.45466 9.2989 7.87823 9.298H6.87288C6.29529 9.29706 5.74084 9.5259 5.33178 9.93355C4.9225 10.3414 4.69222 10.8952 4.69133 11.4728V14.3245C4.69133 14.4133 4.65603 14.4986 4.59316 14.5615C4.53028 14.6244 4.44519 14.6597 4.35637 14.6597H2.01051C1.64049 14.6597 1.34037 14.3595 1.34037 13.9895V6.5671C1.34037 6.37122 1.42615 6.18516 1.57505 6.05777L6.93674 1.50043H6.93651C7.18685 1.28796 7.55429 1.28796 7.80441 1.50043L13.1661 6.05777C13.3162 6.18446 13.4031 6.37076 13.4041 6.5671L13.404 13.9895Z" fill="#333333"/>
</g>
</svg>
