<svg width="15" height="18" viewBox="0 0 15 18" fill="none" xmlns="http://www.w3.org/2000/svg">
<path d="M13.5031 18H1.2245C0.549908 18 0 17.4493 0 16.7726C0 12.9274 2.87475 11.0455 7.36367 11.0455C11.8526 11.0455 14.7273 12.9275 14.7273 16.7726C14.7273 17.4472 14.1803 18 13.5028 18H13.5031ZM7.36389 12.6817C3.85679 12.6817 1.84698 13.8811 1.65208 16.3637H13.076C12.8811 13.8811 10.8713 12.6817 7.36418 12.6817H7.36389ZM7.36389 10.2273C4.96456 10.2273 3.27296 7.6157 3.27296 4.90904C3.27296 2.28456 4.94944 0 7.36389 0C9.77834 0 11.4548 2.28456 11.4548 4.90904C11.4548 7.6157 9.76321 10.2273 7.36389 10.2273ZM7.36389 8.5908C8.67313 8.5908 9.81859 6.82242 9.81859 4.90911C9.81859 3.09822 8.7456 1.6363 7.36389 1.6363C5.98218 1.6363 4.90918 3.09822 4.90918 4.90911C4.90918 6.82242 6.05464 8.5908 7.36389 8.5908Z" fill="#333333"/>
</svg>
