<svg width="18" height="18" viewBox="0 0 18 18" fill="none" xmlns="http://www.w3.org/2000/svg">
<path d="M0.749797 1.50008H1.49973C1.77988 1.50086 2.05323 1.58797 2.28214 1.74963C2.51102 1.91155 2.68418 2.1399 2.77861 2.40383L5.68841 10.4998C5.84352 10.9382 6.13021 11.3178 6.50979 11.5864C6.88908 11.8548 7.34242 11.9994 7.80721 12H13.9198C14.3917 11.9997 14.8518 11.8514 15.2347 11.5754C15.6177 11.2995 15.9041 10.9102 16.0535 10.4624L17.9622 4.73619C18.0381 4.50731 17.9997 4.25619 17.8584 4.06079C17.7171 3.86539 17.4909 3.74978 17.2497 3.75004H4.87475L4.21479 1.89754C4.01442 1.33908 3.64559 0.856453 3.1593 0.516677C2.67303 0.176627 2.0931 -0.00386144 1.49986 6.26554e-05H0.749931C0.335591 6.26554e-05 0 0.335667 0 0.749994C0 1.16407 0.335604 1.49992 0.749931 1.49992L0.749797 1.50008ZM16.2111 5.25007L14.6249 9.98623C14.5239 10.2907 14.2406 10.4971 13.92 10.5H7.80741C7.49063 10.4995 7.20866 10.2999 7.10248 10.0014L5.4038 5.25011L16.2111 5.25007Z" fill="white"/>
<path d="M5.25 15.75C5.25 16.3467 5.48699 16.919 5.90891 17.341C6.33084 17.7629 6.9032 17.9999 7.50011 17.9999C8.09678 17.9999 8.66911 17.7629 9.09105 17.341C9.51297 16.919 9.74996 16.3467 9.74996 15.75C9.74996 15.1534 9.51297 14.581 9.09105 14.1591C8.66912 13.7369 8.09676 13.4999 7.50011 13.4999C6.90319 13.4999 6.33085 13.7369 5.90891 14.1591C5.48699 14.581 5.25 15.1534 5.25 15.75ZM8.25006 15.75C8.25006 16.0532 8.06721 16.3268 7.78706 16.443C7.50665 16.5591 7.18412 16.4948 6.96963 16.2803C6.75514 16.0658 6.69105 15.7432 6.80719 15.4631C6.92307 15.1827 7.19668 15.0001 7.50013 15.0001C7.69894 15.0001 7.88962 15.0791 8.03036 15.2196C8.17109 15.3603 8.25008 15.551 8.25008 15.75L8.25006 15.75Z" fill="white"/>
<path d="M13.4998 13.5C12.9032 13.5 12.3309 13.737 11.9089 14.1592C11.487 14.5811 11.25 15.1535 11.25 15.7501C11.25 16.3468 11.487 16.9191 11.9089 17.3411C12.3308 17.763 12.9032 18 13.4998 18C14.0965 18 14.6688 17.763 15.0908 17.3411C15.513 16.9191 15.75 16.3468 15.75 15.7501C15.75 15.1535 15.513 14.5812 15.0908 14.1592C14.6689 13.737 14.0965 13.5 13.4998 13.5ZM13.4998 16.5001C13.1967 16.5001 12.9231 16.3172 12.8069 16.0371C12.6908 15.7569 12.7551 15.4342 12.9696 15.2197C13.1841 15.0052 13.5066 14.9411 13.7868 15.0572C14.0672 15.1734 14.2498 15.4467 14.2498 15.7502C14.2498 15.949 14.1708 16.1399 14.0303 16.2804C13.8896 16.4211 13.6989 16.5001 13.4998 16.5001L13.4998 16.5001Z" fill="white"/>
</svg>
