<svg width="19" height="18" viewBox="0 0 19 18" fill="none" xmlns="http://www.w3.org/2000/svg">
<path d="M1.47709 1.50008H2.22702C2.50717 1.50086 2.78052 1.58797 3.00943 1.74963C3.23831 1.91155 3.41148 2.1399 3.50591 2.40383L6.4157 10.4998C6.57082 10.9382 6.85751 11.3178 7.23708 11.5864C7.61637 11.8548 8.06971 11.9994 8.53451 12H14.6471C15.1189 11.9997 15.5791 11.8514 15.962 11.5754C16.345 11.2995 16.6314 10.9102 16.7808 10.4624L18.6895 4.73619C18.7654 4.50731 18.7269 4.25619 18.5857 4.06079C18.4444 3.86539 18.2182 3.74978 17.977 3.75004H5.60205L4.94208 1.89754C4.74171 1.33908 4.37289 0.856453 3.88659 0.516677C3.40032 0.176627 2.82039 -0.00386144 2.22716 6.26554e-05H1.47723C1.06289 6.26554e-05 0.727295 0.335667 0.727295 0.749994C0.727295 1.16407 1.0629 1.49992 1.47723 1.49992L1.47709 1.50008ZM16.9384 5.25007L15.3522 9.98623C15.2512 10.2907 14.9679 10.4971 14.6473 10.5H8.5347C8.21793 10.4995 7.93595 10.2999 7.82977 10.0014L6.13109 5.25011L16.9384 5.25007Z" fill="#333333"/>
<path d="M5.97705 15.75C5.97705 16.3467 6.21404 16.919 6.63596 17.341C7.05789 17.7629 7.63025 17.9999 8.22716 17.9999C8.82383 17.9999 9.39616 17.7629 9.8181 17.341C10.24 16.919 10.477 16.3467 10.477 15.75C10.477 15.1534 10.24 14.581 9.8181 14.1591C9.39617 13.7369 8.82381 13.4999 8.22716 13.4999C7.63024 13.4999 7.05791 13.7369 6.63596 14.1591C6.21404 14.581 5.97705 15.1534 5.97705 15.75ZM8.97711 15.75C8.97711 16.0532 8.79426 16.3268 8.51411 16.443C8.2337 16.5591 7.91117 16.4948 7.69668 16.2803C7.48219 16.0658 7.4181 15.7432 7.53424 15.4631C7.65012 15.1827 7.92373 15.0001 8.22719 15.0001C8.42599 15.0001 8.61667 15.0791 8.75741 15.2196C8.89814 15.3603 8.97713 15.551 8.97713 15.75L8.97711 15.75Z" fill="#333333"/>
<path d="M14.2271 13.5C13.6305 13.5 13.0581 13.737 12.6362 14.1592C12.2143 14.5811 11.9773 15.1535 11.9773 15.7501C11.9773 16.3468 12.2143 16.9191 12.6362 17.3411C13.0581 17.763 13.6305 18 14.2271 18C14.8238 18 15.3961 17.763 15.8181 17.3411C16.2403 16.9191 16.4773 16.3468 16.4773 15.7501C16.4773 15.1535 16.2403 14.5812 15.8181 14.1592C15.3961 13.737 14.8238 13.5 14.2271 13.5ZM14.2271 16.5001C13.924 16.5001 13.6504 16.3172 13.5342 16.0371C13.4181 15.7569 13.4824 15.4342 13.6969 15.2197C13.9114 15.0052 14.2339 14.9411 14.5141 15.0572C14.7945 15.1734 14.9771 15.4467 14.9771 15.7502C14.9771 15.949 14.8981 16.1399 14.7576 16.2804C14.6169 16.4211 14.4262 16.5001 14.2271 16.5001L14.2271 16.5001Z" fill="#333333"/>
</svg>
