<svg width="22" height="34" viewBox="0 0 22 34" fill="none" xmlns="http://www.w3.org/2000/svg">
<path d="M18.8284 20.4691H19.9492C20.3828 20.4691 20.7837 20.2377 21.0008 19.862C21.2176 19.4863 21.2176 19.0234 21.0008 18.6477C20.7837 18.272 20.3828 18.0405 19.9492 18.0405H17.858L14.8865 10.6139L14.8868 10.6142C14.8223 9.73735 14.4922 8.90116 13.9398 8.21734C13.3877 7.53321 12.6399 7.0342 11.7963 6.78676V1.21427C11.7963 0.780328 11.5649 0.379466 11.1892 0.162628C10.8135 -0.0542095 10.3506 -0.0542095 9.97489 0.162628C9.59922 0.379466 9.36774 0.780342 9.36774 1.21427V6.78676C8.52398 7.0345 7.77591 7.53379 7.22351 8.21817C6.67139 8.90284 6.34124 9.73957 6.27727 10.6166L3.30579 18.0432H3.29603L1.21495 18.043C0.781272 18.043 0.380416 18.2744 0.163301 18.6501C-0.0535368 19.0258 -0.0535368 19.4887 0.163301 19.8644C0.380409 20.2401 0.781286 20.4716 1.21495 20.4716H2.3357L0.086835 26.089C-0.0419146 26.411 -0.0270023 26.7731 0.128306 27.0835L2.082 30.9911V32.7857C2.082 33.2197 2.31347 33.6205 2.68914 33.8374C3.06482 34.0542 3.52777 34.0542 3.90343 33.8374C4.2791 33.6205 4.51058 33.2197 4.51058 32.7857V30.9242L8.43156 20.4688H12.7325L16.6535 30.9242V32.7857C16.6535 33.2197 16.885 33.6205 17.2606 33.8374C17.6363 34.0542 18.0993 34.0542 18.4749 33.8374C18.8506 33.6205 19.0821 33.2197 19.0821 32.7857V30.9911L21.0358 27.0786C21.1911 26.7682 21.206 26.4061 21.0772 26.0841L18.8284 20.4691ZM3.13698 27.6702L2.54447 26.4863L7.53527 14.0083V14.008C7.70658 14.176 7.8917 14.3292 8.08903 14.4658L3.13698 27.6702ZM13.0747 14.4657C13.2721 14.3291 13.4572 14.1759 13.6285 14.0079L18.6193 26.4859L18.0268 27.6698L13.0747 14.4657ZM10.5819 9.02086C11.0879 9.02086 11.5731 9.2217 11.9309 9.57949C12.2886 9.93727 12.4895 10.4224 12.4895 10.9285C12.4895 11.4345 12.2887 11.9197 11.9309 12.2774C11.5731 12.6352 11.0879 12.8361 10.5819 12.8361C10.0759 12.8361 9.59069 12.6352 9.23293 12.2774C8.87516 11.9197 8.6743 11.4345 8.6743 10.9285C8.67484 10.4227 8.87623 9.93781 9.23374 9.58025C9.59125 9.22274 10.0762 9.02135 10.582 9.02081L10.5819 9.02086ZM9.34215 18.0406L10.39 15.2477C10.4556 15.2477 10.5115 15.2673 10.5819 15.2673C10.6524 15.2673 10.7034 15.2515 10.7738 15.2477L11.8217 18.0406H9.34215Z" fill="white"/>
</svg>
