<svg width="39" height="34" viewBox="0 0 39 34" fill="none" xmlns="http://www.w3.org/2000/svg">
<path d="M38.2952 24.4228L35.7276 2.59398C35.6736 2.13373 35.3913 1.73151 34.977 1.52438L32.2278 0.149764C31.901 -0.0165402 31.5218 -0.0456897 31.1738 0.0690708C30.8256 0.183517 30.5378 0.432361 30.3739 0.760061C30.2101 1.08807 30.184 1.46762 30.3015 1.81466C30.4187 2.16169 30.6697 2.44766 30.9986 2.60903L33.0839 3.65107L34.9562 19.562C32.7476 18.0944 29.9474 17.8401 27.5106 18.8854C25.0734 19.9309 23.3281 22.1351 22.8694 24.7469H15.614C15.1553 22.1351 13.41 19.9309 10.9729 18.8854C8.53603 17.84 5.73583 18.0945 3.52726 19.562L5.39924 3.65107L7.48449 2.60903H7.4848C7.81373 2.44764 8.06471 2.16167 8.18193 1.81466C8.29944 1.46763 8.27336 1.08808 8.10951 0.760061C7.94567 0.432361 7.65785 0.183525 7.30957 0.0690708C6.96162 -0.0456818 6.58237 -0.0165323 6.25559 0.149764L3.50637 1.52438C3.09214 1.73149 2.80985 2.13375 2.75585 2.59398L0.188232 24.4228C-0.272019 26.4891 0.119809 28.6531 1.27535 30.427C2.43058 32.2005 4.25198 33.4336 6.32765 33.8479C8.40339 34.2621 10.5585 33.8221 12.306 32.6276C14.0537 31.4334 15.2461 29.5851 15.6139 27.5007H22.8693C23.2372 29.585 24.4295 31.4334 26.1772 32.6276C27.9246 33.8221 30.0798 34.2621 32.1555 33.8479C34.2313 33.4337 36.0526 32.2005 37.2078 30.427C38.3633 28.6532 38.7551 26.4891 38.2949 24.4228H38.2952ZM7.8699 31.2465C6.51893 31.2449 5.22318 30.7108 4.2637 29.7592C3.30454 28.8081 2.75933 27.5166 2.74676 26.1659L2.88422 24.9536V24.9533C3.18001 23.6981 3.93882 22.6005 5.00874 21.8804C6.07866 21.1602 7.38117 20.8706 8.65547 21.0694C9.93009 21.2679 11.0823 21.9405 11.8821 22.9522C12.6824 23.9638 13.0708 25.2402 12.9704 26.5262C12.8698 27.8121 12.2877 29.0124 11.3402 29.8875C10.393 30.7629 9.15002 31.248 7.8604 31.2465L7.8699 31.2465ZM30.6138 31.2465C29.3218 31.2499 28.0763 30.7651 27.1267 29.8894C26.1767 29.0137 25.5928 27.8115 25.4916 26.5234C25.3903 25.2353 25.7794 23.9567 26.5808 22.9433C27.3819 21.9298 28.5365 21.2566 29.813 21.0581C31.0897 20.8596 32.394 21.1508 33.4652 21.873C34.5367 22.5953 35.2955 23.6956 35.59 24.9534L35.7275 26.1657V26.166C35.7146 27.5151 35.1709 28.8051 34.2136 29.7559C33.2566 30.7071 31.9633 31.2425 30.6138 31.2466V31.2465Z" fill="white"/>
</svg>
