<svg width="34" height="34" viewBox="0 0 34 34" fill="none" xmlns="http://www.w3.org/2000/svg">
<path d="M32.2105 5.36841H28.6316V1.19297C28.6316 0.766635 28.4042 0.372807 28.0351 0.159775C27.666 -0.0532582 27.2112 -0.0532582 26.8421 0.159775C26.473 0.372807 26.2456 0.766649 26.2456 1.19297V5.36841H7.1579V1.19297C7.1579 0.766635 6.93049 0.372807 6.56141 0.159775C6.19233 -0.0532582 5.7375 -0.0532582 5.36842 0.159775C4.99935 0.372807 4.77193 0.766649 4.77193 1.19297V5.36841H1.19298C0.876631 5.36841 0.573055 5.4941 0.349374 5.71778C0.125693 5.94146 0 6.24504 0 6.56139V32.807C0 33.1234 0.125693 33.4269 0.349374 33.6506C0.573055 33.8743 0.876631 34 1.19298 34H32.2105C32.5269 34 32.8305 33.8743 33.0542 33.6506C33.2778 33.4269 33.4035 33.1234 33.4035 32.807V6.56139C33.4035 6.24504 33.2778 5.94146 33.0542 5.71778C32.8305 5.4941 32.5269 5.36841 32.2105 5.36841ZM31.0176 31.614H2.38597V15.5088H31.0176V31.614ZM31.0176 13.1228H2.38597V7.75437H4.95436C5.08777 7.9967 5.304 8.18284 5.5631 8.27923C5.82247 8.37536 6.1074 8.37536 6.36676 8.27923C6.62586 8.18283 6.84209 7.9967 6.9755 7.75437H26.4279C26.5614 7.9967 26.7776 8.18284 27.0367 8.27923C27.2961 8.37536 27.581 8.37536 27.8403 8.27923C28.0995 8.18283 28.3157 7.9967 28.4491 7.75437H31.0175L31.0176 13.1228Z" fill="white"/>
</svg>
