<svg width="34" height="34" viewBox="0 0 34 34" fill="none" xmlns="http://www.w3.org/2000/svg">
<path d="M33.8714 32.2402L18.0871 0.671592C18.0354 0.570233 17.9679 0.477539 17.8869 0.39732C17.6614 0.14473 17.3391 0 17.0004 0C16.6619 0 16.3394 0.144723 16.1142 0.39732C16.0331 0.477539 15.9654 0.570233 15.9139 0.671592L0.12959 32.2402C-0.0300433 32.5575 -0.0427815 32.9286 0.0946279 33.2557C0.232038 33.5831 0.505768 33.8338 0.844017 33.9422C1.18198 34.0504 1.5506 34.0054 1.85248 33.8186L16.9943 24.4951L32.1424 33.8172C32.4446 34.0037 32.8129 34.049 33.1511 33.9406C33.4891 33.8324 33.7628 33.5814 33.9002 33.2543C34.0376 32.9269 34.0249 32.5559 33.8655 32.2388L33.8714 32.2402ZM15.7802 6.35741V22.3845L4.20044 29.517L15.7802 6.35741ZM18.2086 22.3845V6.35741L29.7883 29.517L18.2086 22.3845Z" fill="white"/>
</svg>
