<svg width="30" height="24" viewBox="0 0 30 24" fill="none" xmlns="http://www.w3.org/2000/svg">
<path d="M27.9996 2.66688H1.3332C0.596602 2.66688 0 2.06979 0 1.3332C0 0.597066 0.596626 0 1.3332 0H27.9996C28.7362 0 29.3328 0.59709 29.3328 1.3332C29.3328 2.0698 28.7362 2.66688 27.9996 2.66688Z" fill="#ffffff"/>
<path d="M27.9996 13.3335H1.3332C0.596602 13.3335 0 12.7368 0 12.0003C0 11.2637 0.596626 10.6671 1.3332 10.6671H27.9996C28.7362 10.6671 29.3328 11.2637 29.3328 12.0003C29.3328 12.7368 28.7362 13.3335 27.9996 13.3335Z" fill="#ffffff"/>
<path d="M27.9996 24H1.3332C0.596602 24 0 23.4029 0 22.6668C0 21.9302 0.596626 21.3331 1.3332 21.3331H27.9996C28.7362 21.3331 29.3328 21.9302 29.3328 22.6668C29.3328 23.4029 28.7362 24 27.9996 24Z" fill="#ffffff"/>
</svg>
