<svg width="16" height="18" viewBox="0 0 16 18" fill="none" xmlns="http://www.w3.org/2000/svg">
<path d="M15.4286 13.5V4.5C15.4286 3.98843 15.2254 3.49799 14.8638 3.13622C14.502 2.77461 14.0116 2.57143 13.5 2.57143H12.8571V1.92857C12.8571 1.417 12.6539 0.926559 12.2923 0.564796C11.9306 0.203187 11.4401 0 10.9286 0H1.92857C1.417 0 0.926559 0.203187 0.564796 0.564796C0.203187 0.926548 0 1.417 0 1.92857V13.5C0 14.0116 0.203187 14.502 0.564796 14.8638C0.926548 15.2254 1.417 15.4286 1.92857 15.4286H2.57143V16.0714C2.57143 16.583 2.77461 17.0734 3.13622 17.4352C3.49797 17.7968 3.98843 18 4.5 18H10.9286C11.0995 18.001 11.2636 17.9338 11.385 17.8136L15.2422 13.9564C15.3624 13.8351 15.4296 13.6709 15.4286 13.5L15.4286 13.5ZM2.57143 4.5V14.1428H1.92857C1.7581 14.1428 1.59451 14.0751 1.47398 13.9546C1.35344 13.834 1.28571 13.6705 1.28571 13.5V1.92857C1.28571 1.7581 1.35344 1.59451 1.47398 1.47398C1.59451 1.35344 1.7581 1.28571 1.92857 1.28571H10.9286C11.099 1.28571 11.2626 1.35344 11.3832 1.47398C11.5037 1.59451 11.5714 1.7581 11.5714 1.92857V2.57143H4.5C3.98843 2.57143 3.49799 2.77461 3.13622 3.13622C2.77461 3.49797 2.57143 3.98843 2.57143 4.5ZM11.5714 15.8077V14.7856C11.5714 14.6151 11.6392 14.4515 11.7597 14.331C11.8802 14.2104 12.0438 14.1427 12.2143 14.1427H13.2364L11.5714 15.8077ZM14.1428 12.857H12.2143C11.7027 12.857 11.2123 13.0602 10.8505 13.4218C10.4889 13.7835 10.2857 14.274 10.2857 14.7856V16.7141H4.5C4.32953 16.7141 4.16594 16.6464 4.04541 16.5259C3.92487 16.4053 3.85714 16.2417 3.85714 16.0713V4.49985C3.85714 4.32938 3.92487 4.16579 4.04541 4.04526C4.16594 3.92472 4.32953 3.85699 4.5 3.85699H13.5C13.6705 3.85699 13.834 3.92472 13.9546 4.04526C14.0751 4.16579 14.1428 4.32938 14.1428 4.49985V12.857Z" fill="#333333"/>
<path d="M5.14258 5.78564H12.8569V7.07136H5.14258V5.78564Z" fill="#333333"/>
<path d="M5.14258 8.35742H12.8569V9.64314H5.14258V8.35742Z" fill="#333333"/>
<path d="M5.14258 10.9282H12.8569V12.2139H5.14258V10.9282Z" fill="#333333"/>
</svg>
