<svg width="19" height="19" viewBox="0 0 19 19" fill="none" xmlns="http://www.w3.org/2000/svg">
<path d="M17.8354 14.8411H6.33238C5.95471 14.0538 5.21031 13.506 4.34652 13.3798V3.60035C4.34652 2.80554 4.03052 2.04318 3.46833 1.48094C2.90641 0.918751 2.144 0.603027 1.34892 0.603027C0.934923 0.603027 0.599609 0.938356 0.599609 1.35234C0.599609 1.76608 0.934937 2.10166 1.34892 2.10166C1.74646 2.10166 2.12754 2.25952 2.40876 2.54075C2.68973 2.82171 2.84759 3.20304 2.84759 3.60032V13.6046C2.00969 13.9963 1.44043 14.8008 1.34896 15.7211C1.25775 16.6416 1.6579 17.5423 2.40251 18.0911C3.14688 18.6403 4.12542 18.7563 4.97798 18.3969C5.83026 18.0378 6.43037 17.2561 6.55716 16.3398H17.8354C18.2494 16.3398 18.5847 16.0042 18.5847 15.5904C18.5847 15.1764 18.2493 14.8409 17.8354 14.8409L17.8354 14.8411ZM3.97183 17.0893C3.67361 17.0893 3.38768 16.971 3.17701 16.76C2.9661 16.5494 2.84769 16.2634 2.84769 15.9652C2.84769 15.6673 2.96609 15.3813 3.17701 15.1704C3.38767 14.9597 3.6736 14.8411 3.97183 14.8411C4.27005 14.8411 4.55597 14.9597 4.76664 15.1704C4.97756 15.3813 5.09596 15.6673 5.09596 15.9652C5.09596 16.2634 4.97756 16.5494 4.76664 16.76C4.55598 16.9709 4.27005 17.0893 3.97183 17.0893Z" fill="#333333"/>
<path d="M8.09202 13.3421H15.5858C16.182 13.3421 16.7539 13.1053 17.1755 12.6838C17.597 12.2622 17.8338 11.6903 17.8338 11.0939V3.60005C17.8338 3.00387 17.597 2.43202 17.1755 2.01042C16.7539 1.58883 16.182 1.35205 15.5858 1.35205H8.09202C7.49558 1.35205 6.92372 1.58885 6.50212 2.01042C6.08054 2.432 5.84375 3.00389 5.84375 3.60005V11.0939C5.84375 11.6903 6.08055 12.2622 6.50212 12.6838C6.9237 13.1053 7.49559 13.3421 8.09202 13.3421ZM7.34243 3.60017C7.34243 3.18643 7.67802 2.85085 8.09202 2.85085H11.0896V5.09913H11.0893C11.0893 5.51287 11.4249 5.84845 11.8389 5.84845C12.2527 5.84845 12.5882 5.51286 12.5882 5.09913V2.85085H15.5858C15.7845 2.85085 15.975 2.92979 16.1156 3.0704C16.2562 3.21101 16.3352 3.40154 16.3352 3.60018V11.094C16.3352 11.2929 16.2562 11.4834 16.1156 11.624C15.975 11.7647 15.7845 11.8436 15.5858 11.8436H8.09202C7.67802 11.8436 7.34244 11.508 7.34244 11.094L7.34243 3.60017Z" fill="#333333"/>
</svg>
