<svg width="19" height="18" viewBox="0 0 19 18" fill="none" xmlns="http://www.w3.org/2000/svg">
<path fill-rule="evenodd" clip-rule="evenodd" d="M5.61387 10.8835H8.06566C8.30874 10.8835 8.50724 11.082 8.50724 11.3251V12.5692C8.50724 12.8123 8.30873 13.0108 8.06566 13.0108H5.61387C5.37104 13.0108 5.17229 12.8123 5.17229 12.5692V11.3251C5.17229 11.082 5.37105 10.8835 5.61387 10.8835ZM15.0865 3.40055L1.58922 7.0173L2.89706 11.8995V7.70356L2.89756 7.67117L2.89807 7.65522V7.65497L2.89882 7.63927V7.63902L2.90095 7.60726V7.60675L2.90221 7.59131V7.59081C2.92933 7.28821 3.06393 7.01551 3.26758 6.8122L3.27825 6.80153L3.28918 6.79111L3.30035 6.78069V6.78044L3.31153 6.77027L3.3227 6.76035V6.7601L3.33413 6.75018L3.34581 6.74051V6.74026L3.35748 6.73059L3.36916 6.72117L3.38096 6.71176L3.39302 6.70259V6.70234L3.40507 6.69342V6.69317L3.41712 6.68426L3.44173 6.66693V6.66668L3.46685 6.64985L3.47965 6.64157L3.50552 6.62537C3.51832 6.61759 3.53163 6.60993 3.54494 6.60239L3.55825 6.59511V6.59486L3.57156 6.58783L3.58512 6.5808V6.58055L3.61275 6.56699L3.62656 6.56046L3.64037 6.55418L3.65443 6.5479L3.66849 6.54187V6.54162L3.68281 6.53585L3.71144 6.52467V6.52442C3.85068 6.47144 4.00123 6.4423 4.15906 6.4423H15.9013L15.0865 3.40088L15.0865 3.40055ZM1.13793 5.3338L14.6352 1.71705L14.4931 1.18655C14.4521 1.034 14.2969 0.944978 14.1444 0.985784L1.19643 4.455C1.05141 4.49392 0.947572 4.65841 0.995912 4.80369L1.1378 5.33367L1.13793 5.3338ZM16.9125 6.442H17.5636C18.2563 6.442 18.8254 7.01091 18.8254 7.70362V16.7381C18.8254 17.4332 18.2587 18 17.5636 18H4.15888C3.46667 18 2.897 17.4306 2.897 16.7381V15.2477C2.78638 15.1092 2.70527 14.9564 2.65856 14.7827L0.0527079 5.05612C-0.161372 4.41425 0.304705 3.68338 0.944425 3.51173L13.8927 0.0425121C14.5612 -0.13641 15.2578 0.266258 15.4368 0.934487L16.9125 6.44191L16.9125 6.442ZM4.15875 7.41986C4.14305 7.41986 4.12748 7.42112 4.11254 7.42376L4.09873 7.42639V7.42664L4.08178 7.43079L4.07161 7.43393L4.06508 7.43606L4.06194 7.43732L4.05541 7.4397V7.43995L4.04913 7.44246L4.04286 7.44535L4.03972 7.44686L4.03344 7.44975L4.0303 7.45138L4.02427 7.45452L4.01561 7.45941L4.01247 7.46105V7.4613L4.0067 7.46456V7.46481L4.00406 7.46645L3.99828 7.47021L3.99565 7.4721L3.99276 7.47423L3.99012 7.47611L3.98723 7.47825L3.9846 7.48013L3.97669 7.48654L3.9743 7.48867V7.48892L3.97166 7.4908V7.49106L3.96928 7.49319L3.96664 7.49558L3.96426 7.49771L3.95949 7.50248C3.91353 7.54819 3.88302 7.60946 3.87674 7.67676V7.67726L3.87649 7.68065V7.6809L3.87624 7.68404V7.68454L3.87599 7.68768V7.69158L3.87574 7.69522V16.7371C3.87574 16.8949 4.00193 17.0211 4.1595 17.0211H17.5642C17.7194 17.0211 17.848 16.8923 17.848 16.7371V7.70261C17.848 7.54528 17.7218 7.41885 17.5642 7.41885H4.1595L4.15875 7.41986ZM9.19623 15.0523H16.7001V16.0009H9.19623V15.0523ZM10.8063 13.3561H16.7001V14.3049H10.8063V13.3561Z" fill="#333333"/>
</svg>
