<svg width="18" height="19" viewBox="0 0 18 19" fill="none" xmlns="http://www.w3.org/2000/svg">
<path d="M17.2997 6.58287C17.3003 6.33831 17.1813 6.10866 16.9812 5.96793L9.48159 0.718369C9.22264 0.536585 8.8779 0.536585 8.61893 0.718369L1.11937 5.96793C0.919269 6.10866 0.800261 6.3383 0.800783 6.58287V16.3323C0.800783 16.9289 1.03776 17.5012 1.45966 17.9232C1.88156 18.3451 2.45389 18.582 3.05051 18.582H15.0498C15.6464 18.582 16.2187 18.3451 16.6407 17.9232C17.0626 17.5013 17.2995 16.9289 17.2995 16.3323L17.2997 6.58287ZM5.30043 12.5827H12.8V14.0824H5.30043V12.5827ZM12.8 11.0829L5.30043 11.0826V10.3327C5.30043 9.91867 5.63628 9.58284 6.05032 9.58284H12.0501C12.2489 9.58284 12.4398 9.66183 12.5803 9.80255C12.721 9.94301 12.8 10.1339 12.8 10.3327L12.8 11.0829ZM5.30043 17.0824V15.5826H12.8V17.0824H5.30043ZM15.7998 16.3325C15.7998 16.5313 15.7208 16.7222 15.5801 16.8627C15.4394 17.0034 15.2487 17.0824 15.0499 17.0824H14.2998V10.3328C14.2998 9.73617 14.0628 9.16387 13.6409 8.74196C13.219 8.32005 12.6467 8.08308 12.05 8.08308H6.05025C5.45362 8.08308 4.88132 8.32006 4.45941 8.74196C4.0375 9.16386 3.80053 9.73619 3.80053 10.3328V17.0824H3.05037C2.63631 17.0824 2.30048 16.7466 2.30048 16.3325V6.95806L9.05009 2.2334L15.7997 6.95806L15.7998 16.3325Z" fill="#333333"/>
<path d="M9.80056 5.8329C9.80056 6.24722 9.46498 6.58279 9.05067 6.58279C8.63637 6.58279 8.30078 6.2472 8.30078 5.8329C8.30078 5.41859 8.63637 5.08301 9.05067 5.08301C9.46498 5.08301 9.80056 5.41859 9.80056 5.8329Z" fill="#333333"/>
</svg>
