<svg width="12" height="16" viewBox="0 0 12 16" fill="none" xmlns="http://www.w3.org/2000/svg">
<g opacity="0.5">
<path d="M5.81821 15.9997C5.63634 15.9992 5.46107 15.9305 5.32739 15.8069C5.09099 15.6071 0 10.8544 0 5.8181C0 3.73969 1.10895 1.81881 2.90912 0.7796C4.70929 -0.259867 6.92718 -0.259867 8.72735 0.7796C10.5275 1.81881 11.6365 3.73969 11.6365 5.8181C11.6365 10.7889 6.54575 15.6037 6.3129 15.8037C6.17872 15.9292 6.00192 15.9995 5.81828 16L5.81821 15.9997ZM5.81821 1.45445C4.66082 1.45445 3.55109 1.91431 2.73279 2.73261C1.9143 3.55091 1.45463 4.66083 1.45463 5.81802C1.45463 9.35973 4.57829 12.9595 5.81814 14.2432C7.05085 12.9451 10.1817 9.31609 10.1817 5.81802C10.1817 4.6609 9.72204 3.55091 8.90349 2.73261C8.08519 1.91431 6.97553 1.45445 5.81807 1.45445H5.81821Z" fill="#ffffff"/>
<path d="M5.81818 8.36343C5.143 8.36343 4.49567 8.09507 4.01827 7.61773C3.5409 7.14036 3.27283 6.49307 3.27283 5.81782C3.27283 5.14283 3.54093 4.4953 4.01827 4.0179C4.49564 3.54053 5.14293 3.27246 5.81818 3.27246C6.49343 3.27246 7.1407 3.54057 7.61809 4.0179C8.09546 4.49528 8.36354 5.14283 8.36354 5.81782C8.36354 6.493 8.09543 7.14033 7.61809 7.61773C7.14072 8.0951 6.49343 8.36343 5.81818 8.36343ZM5.81818 4.72712C5.52877 4.72712 5.25127 4.84202 5.04683 5.04646C4.84214 5.25116 4.72723 5.52865 4.72723 5.81782C4.72723 6.10723 4.84213 6.38472 5.04683 6.58943C5.25127 6.79387 5.52876 6.90877 5.81818 6.90877C6.1076 6.90877 6.38509 6.79387 6.58954 6.58943C6.79423 6.38474 6.90914 6.10724 6.90914 5.81782C6.90914 5.52866 6.79423 5.25116 6.58954 5.04646C6.3851 4.84202 6.1076 4.72712 5.81818 4.72712Z" fill="#ffffff"/>
</g>
</svg>
