<svg width="14" height="17" viewBox="0 0 14 17" fill="none" xmlns="http://www.w3.org/2000/svg">
<g opacity="0.5">
<path d="M6.64141 16.398C4.87991 16.398 3.19065 15.6982 1.94511 14.4529C0.699726 13.2073 0 11.5181 0 9.75655C0 7.99506 0.699726 6.30579 1.94511 5.06025C3.19065 3.81487 4.87991 3.11514 6.64141 3.11514C8.40291 3.11514 10.0922 3.81487 11.3377 5.06025C12.5831 6.30579 13.2828 7.99506 13.2828 9.75655C13.2828 11.5181 12.5831 13.2073 11.3377 14.4529C10.0922 15.6982 8.40291 16.398 6.64141 16.398ZM6.64141 4.32257C5.20023 4.32257 3.8182 4.89513 2.79901 5.9141C1.78004 6.93328 1.20749 8.31532 1.20749 9.7565C1.20749 11.1977 1.78004 12.5797 2.79901 13.5989C3.8182 14.6179 5.20023 15.1904 6.64141 15.1904C8.08259 15.1904 9.46463 14.6179 10.4838 13.5989C11.5028 12.5797 12.0753 11.1977 12.0753 9.7565C12.0753 8.31532 11.5028 6.93328 10.4838 5.9141C9.46463 4.89513 8.08259 4.32257 6.64141 4.32257Z" fill="#ffffff"/>
<path d="M6.64144 10.3603C6.30788 10.3603 6.03772 10.0901 6.03772 9.75654V6.73769C6.03772 6.40413 6.30789 6.13397 6.64144 6.13397C6.97498 6.13397 7.24515 6.40414 7.24515 6.73769V9.75654C7.24515 9.91658 7.18156 10.0703 7.06827 10.1834C6.95518 10.2967 6.80147 10.3603 6.64142 10.3603L6.64144 10.3603Z" fill="#ffffff"/>
<path d="M8.75456 1.6056H4.52828C4.19472 1.6056 3.92456 1.33521 3.92456 1.00188C3.92456 0.668325 4.19473 0.397949 4.52828 0.397949H8.75456C9.08811 0.397949 9.35827 0.66833 9.35827 1.00188C9.35827 1.33523 9.0881 1.6056 8.75456 1.6056Z" fill="#ffffff"/>
<path d="M10.4543 5.63251C10.2144 5.63567 9.99544 5.49627 9.89644 5.27748C9.79769 5.0589 9.8377 4.80241 9.99857 4.62428L11.9277 2.3934L11.9275 2.39319C12.0271 2.25568 12.1797 2.16619 12.3484 2.14702C12.5171 2.12786 12.6862 2.18051 12.814 2.29211C12.942 2.40393 13.017 2.56418 13.0206 2.7339C13.0241 2.90363 12.9561 3.06725 12.8332 3.18433L10.9041 5.41521C10.7927 5.54914 10.6286 5.62831 10.4543 5.63252L10.4543 5.63251Z" fill="#ffffff"/>
</g>
</svg>
