<svg width="199" height="40" viewBox="0 0 199 40" fill="none" xmlns="http://www.w3.org/2000/svg">
<path d="M37.6961 18.7751C40.2951 18.7751 42.402 16.6682 42.402 14.0692C42.402 11.4702 40.2951 9.36328 37.6961 9.36328C35.0971 9.36328 32.9902 11.4702 32.9902 14.0692C32.9902 16.6682 35.0971 18.7751 37.6961 18.7751Z" fill="#F79224"/>
<path d="M42.402 19.9025V14.0692H37.6961V9.36328H32.9902V19.9025H42.402Z" fill="#F79224"/>
<path d="M15.8823 19.9997C18.4813 19.9997 20.5882 17.8928 20.5882 15.2938C20.5882 12.6948 18.4813 10.5879 15.8823 10.5879C13.2833 10.5879 11.1765 12.6948 11.1765 15.2938C11.1765 17.8928 13.2833 19.9997 15.8823 19.9997Z" fill="#DEDEDE"/>
<path d="M15.8823 28.0387C18.4813 28.0387 20.5882 25.9318 20.5882 23.3328C20.5882 20.7339 18.4813 18.627 15.8823 18.627C13.2833 18.627 11.1765 20.7339 11.1765 23.3328C11.1765 25.9318 13.2833 28.0387 15.8823 28.0387Z" fill="#DEDEDE"/>
<path d="M59.755 18.6755C62.354 18.6755 64.4609 16.5686 64.4609 13.9696C64.4609 11.3706 62.354 9.26367 59.755 9.26367C57.156 9.26367 55.0491 11.3706 55.0491 13.9696C55.0491 16.5686 57.156 18.6755 59.755 18.6755Z" fill="#DEDEDE"/>
<path d="M64.4608 21.0282V13.9694H59.755V9.3125H55.0981V21.0282H64.4608Z" fill="#DEDEDE"/>
<path d="M75.8333 9.31445H66.4705V30.3929H75.8333V9.31445Z" fill="#DEDEDE"/>
<path d="M49.3136 18.6755C51.9126 18.6755 54.0195 16.5686 54.0195 13.9696C54.0195 11.3706 51.9126 9.26367 49.3136 9.26367C46.7146 9.26367 44.6077 11.3706 44.6077 13.9696C44.6077 16.5686 46.7146 18.6755 49.3136 18.6755Z" fill="#DEDEDE"/>
<path d="M44.6077 21.0282V13.9694H49.3136V9.3125H53.9705V21.0282H44.6077Z" fill="#DEDEDE"/>
<path d="M81.9118 18.6755C84.5107 18.6755 86.6176 16.5686 86.6176 13.9696C86.6176 11.3706 84.5107 9.26367 81.9118 9.26367C79.3128 9.26367 77.2059 11.3706 77.2059 13.9696C77.2059 16.5686 79.3128 18.6755 81.9118 18.6755Z" fill="#DEDEDE"/>
<path d="M37.6961 18.7751C40.2951 18.7751 42.402 16.6682 42.402 14.0692C42.402 11.4702 40.2951 9.36328 37.6961 9.36328C35.0971 9.36328 32.9902 11.4702 32.9902 14.0692C32.9902 16.6682 35.0971 18.7751 37.6961 18.7751Z" fill="#DEDEDE"/>
<path d="M42.402 19.9025V14.0692H37.6961V9.36328H32.9902V19.9025H42.402Z" fill="#DEDEDE"/>
<path d="M93.2844 18.7751C95.8834 18.7751 97.9903 16.6682 97.9903 14.0692C97.9903 11.4702 95.8834 9.36328 93.2844 9.36328C90.6855 9.36328 88.5786 11.4702 88.5786 14.0692C88.5786 16.6682 90.6855 18.7751 93.2844 18.7751Z" fill="#DEDEDE"/>
<path d="M88.6274 21.128V14.0692H93.2842V9.36328H97.9901V21.128H88.6274Z" fill="#DEDEDE"/>
<path d="M104.02 18.7262C106.619 18.7262 108.726 16.6193 108.726 14.0203C108.726 11.4214 106.619 9.31445 104.02 9.31445C101.421 9.31445 99.3138 11.4214 99.3138 14.0203C99.3138 16.6193 101.421 18.7262 104.02 18.7262Z" fill="#DEDEDE"/>
<path d="M108.726 21.0792V14.0203H104.02V9.31445H99.3138V21.0792H108.726Z" fill="#DEDEDE"/>
<path d="M142.549 9.31445H133.186V39.8047H142.549V9.31445Z" fill="#DEDEDE"/>
<path d="M141.667 10.3438H134.069V38.7751H141.667V10.3438Z" fill="#DEDEDE"/>
<path d="M120.196 18.7246H110.931V19.0678H120.196V18.7246Z" fill="#F79224"/>
<path d="M116.127 22.3526C117.206 22.5487 118.333 22.7938 119.265 23.0389C118.431 21.8625 117.01 21.0781 115.49 21.0781C114.706 21.0781 113.922 21.2742 113.284 21.6174C114.02 21.9605 114.951 22.2056 116.127 22.3526Z" fill="#F79224"/>
<path d="M120.147 24.0684H110.784V26.1272H120.147V24.0684Z" fill="#DEDEDE"/>
<path d="M131.029 15.538V14.0184H126.324V9.3125H121.618V15.2929C124.951 15.2439 131.029 15.538 131.029 15.538Z" fill="#DEDEDE"/>
<path d="M130.735 15.4892C130.882 14.999 130.98 14.5088 130.98 13.9696C130.98 11.3715 128.873 9.26367 126.275 9.26367C123.677 9.26367 121.569 11.3715 121.569 13.9696C121.569 14.4107 121.618 14.8519 121.765 15.2441C124.755 15.2441 129.608 15.4402 130.735 15.4892Z" fill="#DEDEDE"/>
<path d="M130.98 13.627H121.618V15.6858H130.98V13.627Z" fill="#DEDEDE"/>
<path d="M160.735 9.31445C158.284 9.31445 156.226 11.2262 156.079 13.6772V14.0203V15.54V15.736H165.441V15.3439V13.7262V9.36347H160.735V9.31445Z" fill="#DEDEDE"/>
<path d="M20.5882 30.3439V23.3341H17.2549V15.638H20.5882V9.31445H11.2255V30.3439H20.5882Z" fill="#DEDEDE"/>
<path d="M86.5686 30.3439V13.9713H81.9118V9.31445H77.2059V30.3439H86.5686Z" fill="#DEDEDE"/>
<path d="M93.2845 30.344H97.9903V18.7754H88.6276V25.8342H93.2845V30.344Z" fill="#DEDEDE"/>
<path d="M104.02 30.3423V25.7834H108.726V18.7246H99.3138V30.3423H104.02Z" fill="#DEDEDE"/>
<path d="M115.49 30.3422H120.196V24.4599C116.863 24.5089 110.833 24.2148 110.833 24.2148V25.7834H115.539V30.3422H115.49Z" fill="#DEDEDE"/>
<path d="M115.49 18.7262C118.089 18.7262 120.196 16.6193 120.196 14.0203C120.196 11.4214 118.089 9.31445 115.49 9.31445C112.891 9.31445 110.784 11.4214 110.784 14.0203C110.784 16.6193 112.891 18.7262 115.49 18.7262Z" fill="#DEDEDE"/>
<path d="M116.127 22.3538C117.549 22.6479 119.02 22.942 120.196 23.2852V20.7852H111.912C112.696 21.4714 114.02 22.1577 116.127 22.3538Z" fill="#DEDEDE"/>
<path d="M115.49 9.31445V14.0203H110.784V18.7262C110.784 19.3145 111.177 20.2949 112.304 21.0792H120.196V9.31445H115.49Z" fill="#DEDEDE"/>
<path d="M125.686 17.4021C124.265 17.108 122.794 16.8139 121.618 16.4707V18.9707H129.902C129.068 18.2844 127.745 17.5982 125.686 17.4021Z" fill="#DEDEDE"/>
<path d="M120.147 23.2843C121.324 23.6274 121.618 24.2647 121.618 24.2647L122.99 23.0392L119.608 22.0098C119.657 22.0098 119.02 22.9412 120.147 23.2843Z" fill="#DEDEDE"/>
<path d="M121.618 16.4706C120.441 16.1275 120.147 15.4902 120.147 15.4902L118.775 16.7157L122.157 17.7451C122.108 17.7451 122.794 16.8138 121.618 16.4706Z" fill="#DEDEDE"/>
<path d="M118.284 15.4902L122.696 17.5L123.284 21.1275L122.304 23.4804L120.147 23.0393L118.284 21.0295V15.4902Z" fill="#DEDEDE"/>
<path d="M126.323 30.3425V25.7346H131.029V21.0287C131.029 20.4405 130.637 19.4601 129.51 18.6758H121.618V30.3425H126.323Z" fill="#DEDEDE"/>
<path d="M176.323 9.31445H166.961V30.3929H176.323V9.31445Z" fill="#DEDEDE"/>
<path d="M187.794 9.31445H178.431V30.3929H187.794V9.31445Z" fill="#DEDEDE"/>
<path d="M194.02 9.31445H189.314V30.3929H198.676V13.9713C198.676 11.3733 196.618 9.31445 194.02 9.31445Z" fill="#DEDEDE"/>
<path d="M129.853 14.5594V13.53H126.226V10.3438H122.549V14.4124C125.147 14.3634 129.853 14.5594 129.853 14.5594Z" fill="#DEDEDE"/>
<path d="M129.657 14.5594C129.804 14.2162 129.853 13.8732 129.853 13.53C129.853 11.7653 128.235 10.3438 126.226 10.3438C124.216 10.3438 122.598 11.7653 122.598 13.53C122.598 13.8242 122.647 14.1183 122.745 14.4124C125 14.3634 128.726 14.5104 129.657 14.5594Z" fill="#DEDEDE"/>
<path d="M129.804 13.2852H122.549V14.6577H129.804V13.2852Z" fill="#DEDEDE"/>
<path d="M59.7548 30.3425V25.7346H64.4607V18.6758H55.0979V30.3425H59.7548Z" fill="#DEDEDE"/>
<path d="M49.3136 30.3425H53.9705V18.6758H44.6077V25.7346H49.3136V30.3425Z" fill="#DEDEDE"/>
<path d="M31.7155 9.31445H22.3528V30.3929H31.7155V9.31445Z" fill="#DEDEDE"/>
<path d="M9.36275 0H0V30.3432H9.36275V0Z" fill="#DEDEDE"/>
<path d="M175.441 10.1953H167.843V29.313H175.441V10.1953Z" fill="#DEDEDE"/>
<path d="M186.912 10.1953H179.314V29.313H186.912V10.1953Z" fill="#DEDEDE"/>
<path d="M194.02 10.1953H190.196V29.313H197.794V14.46C197.794 12.1071 196.127 10.1953 194.02 10.1953Z" fill="#DEDEDE"/>
<path d="M160.833 10.1953C158.921 10.1953 157.304 11.6169 157.157 13.3816V13.6267V14.7541V14.9012H164.51V14.6071V13.4306V10.2443H160.833V10.1953Z" fill="#DEDEDE"/>
<path d="M163.873 17.1565H162.941H160.735C158.922 17.1565 157.353 18.1859 156.569 19.7055C156.226 20.2447 156.079 20.7349 156.079 21.078V25.7839C156.079 28.0388 157.647 29.9016 159.755 30.3427H161.716H162.255H165.441V19.0192V18.6761V17.1074H163.873V17.1565Z" fill="#DEDEDE"/>
<path d="M163.235 18.0879H162.5H160.784C159.314 18.0879 158.088 18.9703 157.451 20.2448C157.157 20.6859 157.059 21.1271 157.059 21.4212V25.3918C157.059 27.3036 158.333 28.9212 160 29.3134H161.569H162.01H164.51V19.7055V19.4114V18.0879H163.235Z" fill="#DEDEDE"/>
<path d="M49.3136 21.0293C46.7156 21.0293 44.6077 23.1372 44.6077 25.7352C44.6077 28.0391 46.2744 29.9999 48.5293 30.343H50.0979C52.3038 29.9509 54.0195 28.0391 54.0195 25.7352C53.9705 23.1372 51.8626 21.0293 49.3136 21.0293Z" fill="#DEDEDE"/>
<path d="M59.7548 21.0293C57.1568 21.0293 55.049 23.1372 55.049 25.7352C55.049 28.0391 56.7157 29.9999 58.9706 30.343H60.5392C62.7451 29.9509 64.4608 28.0391 64.4608 25.7352C64.4608 23.1372 62.3528 21.0293 59.7548 21.0293Z" fill="#DEDEDE"/>
<path d="M93.2841 21.1289C90.6861 21.1289 88.5782 23.2368 88.5782 25.8348C88.5782 27.9917 90.0488 29.8054 92.0586 30.3446H94.4606C96.4704 29.8054 97.941 27.9917 97.941 25.8348C97.99 23.2368 95.8821 21.1289 93.2841 21.1289Z" fill="#DEDEDE"/>
<path d="M104.019 21.0801C101.421 21.0801 99.3135 23.1879 99.3135 25.786C99.3135 28.0409 100.882 29.9036 102.99 30.3448H104.951C107.059 29.9036 108.627 27.9919 108.627 25.786C108.725 23.1879 106.617 21.0801 104.019 21.0801Z" fill="#DEDEDE"/>
<path d="M119.951 24.4619C117.01 24.5109 112.157 24.2658 111.029 24.2168C110.882 24.707 110.784 25.1972 110.784 25.7364C110.784 27.9913 112.353 29.8541 114.461 30.2952H116.421C118.529 29.8541 120.098 27.9423 120.098 25.7364C120.147 25.3443 120.098 24.9031 119.951 24.4619Z" fill="#DEDEDE"/>
<path d="M126.323 21.0293C123.725 21.0293 121.618 23.1372 121.618 25.7352C121.618 28.0391 123.284 29.9999 125.539 30.343H127.108C129.314 29.9509 131.029 28.0391 131.029 25.7352C131.029 23.1372 128.921 21.0293 126.323 21.0293Z" fill="#DEDEDE"/>
<path d="M149.019 9.31445H144.314V18.6772V21.0302V30.2949H147.157H148.039H150C152.108 29.8537 153.676 27.9419 153.676 25.736V21.0302V18.6772V14.0203C153.725 11.4223 151.617 9.31445 149.019 9.31445Z" fill="#DEDEDE"/>
<path d="M111.912 25.1465V26.1759H115.539V29.3622H119.167V25.2936C116.569 25.3426 111.912 25.1465 111.912 25.1465Z" fill="#DEDEDE"/>
<path d="M112.108 25.1465C111.961 25.4896 111.912 25.8328 111.912 26.1759C111.912 27.9406 113.529 29.3622 115.539 29.3622C117.549 29.3622 119.167 27.9406 119.167 26.1759C119.167 25.8818 119.118 25.5877 119.02 25.2936C116.765 25.2936 112.99 25.1955 112.108 25.1465Z" fill="#DEDEDE"/>
<path d="M119.167 25H111.912V26.3726H119.167V25Z" fill="#DEDEDE"/>
<path d="M125.098 18.334C119.951 17.4026 119.51 16.7163 119.166 15.981C119.166 15.1967 119.166 10.3438 119.166 10.3438H116.127C113.823 10.3438 111.912 12.2555 111.912 14.6084C111.912 14.6084 111.814 18.6771 111.912 18.8732C112.892 20.981 115.735 21.3731 117.304 21.5202C119.363 22.0104 122.549 22.5006 122.598 23.9222C122.598 24.2163 122.598 29.4613 122.598 29.4613H124.461H125.196H126.617C128.627 29.1182 130.098 27.3535 130.098 25.2457V20.981C129.608 19.1182 126.666 18.481 125.098 18.334Z" fill="#DEDEDE"/>
<path d="M149.069 10.4902H145.343V18.9216V21.0295V29.3628H146.079H148.333H149.902C151.569 28.9706 152.843 27.255 152.843 25.2451V21.0295V18.9216V14.7059C152.843 12.353 151.128 10.4902 149.069 10.4902Z" fill="#DEDEDE"/>
</svg>
