<?xml version="1.0" encoding="utf-8"?>
<!-- Generator: Adobe Illustrator 17.1.0, SVG Export Plug-In . SVG Version: 6.00 Build 0)  -->
<!DOCTYPE svg PUBLIC "-//W3C//DTD SVG 1.1//EN" "http://www.w3.org/Graphics/SVG/1.1/DTD/svg11.dtd">
<svg version="1.1" xmlns="http://www.w3.org/2000/svg" xmlns:xlink="http://www.w3.org/1999/xlink" x="0px" y="0px"
	 viewBox="0 0 405.3 81.6" enable-background="new 0 0 405.3 81.6" xml:space="preserve">
<g id="Layer_1" display="none">
	<g display="inline">
		<path fill="#FFFFFF" d="M121.9,19.3h-9.6v19.1v4.8v19h8c0.5,0.1,1.1,0.1,1.6,0.1c5.3,0,9.6-4.3,9.6-9.6v-9.6v-4.8v-9.6
			C131.5,23.6,127.2,19.3,121.9,19.3z"/>
		<path fill="#FFFFFF" d="M91,28.8v9.6v4.8v9.6c0,5.3,4.3,9.6,9.6,9.6c0.5,0,1.1-0.1,1.6-0.1h8v-19v-4.8V19.3h-9.6
			C95.3,19.3,91,23.6,91,28.8z"/>
		<path fill="#FFFFFF" d="M167.1,19.3h-9.6v43h19.1V28.8C176.6,23.6,172.3,19.3,167.1,19.3z"/>
		<path fill="#FFFFFF" d="M76.9,19.5L76.9,19.5L76.9,19.5h-9.6h0v21.4h0h19.1h0V29h0C86.5,23.8,82.2,19.5,76.9,19.5z"/>
		<path fill="#FFFFFF" d="M180.8,29v9.6v4.8V53c0,5.3,4.3,9.6,9.6,9.6c0.9,0,1.7-0.1,2.5-0.3h7.1V43.4v-4.8V19.5h-9.6
			C185,19.5,180.8,23.8,180.8,29z"/>
		<path fill="#FFFFFF" d="M212.2,19.4h-9.6v19.1v4.8v18.9h7.5c0.7,0.1,1.3,0.2,2,0.2c5.3,0,9.6-4.3,9.6-9.6v-9.6v-4.8v-9.6
			C221.8,23.6,217.5,19.4,212.2,19.4z"/>
		<rect x="271.7" y="19.3" fill="#FFFFFF" width="19.1" height="62.2"/>
		<path fill="#FFFFFF" d="M226,49.8v3.1v0.7h0c0.4,5,4.5,8.9,9.5,8.9c0.7,0,1.4-0.1,2-0.2h7.5v-8.6v-3.3v-0.8H226V49.8z"/>
		<path fill="#FFFFFF" d="M257.7,19.3h-9.6v8.9v3.3v0.8h19.1V32v-3.1v-0.7h0C266.9,23.2,262.7,19.3,257.7,19.3z"/>
		<path fill="#FFFFFF" d="M318.4,28.2L318.4,28.2l0,0.7v3.1v0.4h19.1v-0.8v-3.3v-8.9h-9.6C322.9,19.4,318.8,23.3,318.4,28.2z"/>
		<path fill="#FFFFFF" d="M22.9,62.2H42V47.9c0-3.5-1.9-6.5-4.6-8.2c2.6-1.6,4.4-4.3,4.6-7.5h0v-13H22.9V62.2z"/>
		<polygon fill="#FFFFFF" points="135.6,62.2 135.6,62.5 154.8,62.5 154.8,62.2 154.8,19.3 135.6,19.3 		"/>
		<path fill="#FFFFFF" d="M265,39.1L265,39.1C265,39.1,265,39.1,265,39.1c-0.1-0.1-0.1-0.1-0.1-0.1c-0.2-0.2-0.4-0.3-0.6-0.5
			c0,0,0,0,0,0h0c-1.7-1.2-4.2-2.2-7.8-2.6c-2.9-0.6-5.9-1.2-8.3-1.9v0c0,0,0,0,0,0c-2-0.6-2.8-1.6-3-1.9V19.4h-9.6c0,0,0,0,0,0
			c-5.3,0-9.6,4.3-9.6,9.6l0,0l0,0v9.6c0,1.1,0.6,2.7,2.2,4.2h0c0,0,0,0,0,0c0,0,0.1,0.1,0.1,0.1c0.2,0.2,0.4,0.3,0.6,0.5
			c0,0,0,0,0,0h0c0.6,0.4,1.2,0.8,2,1.1c0,0,0,0,0,0c0,0,0,0,0,0c0.3,0.2,0.7,0.3,1.1,0.4c0.1,0,0.1,0,0.2,0.1
			c0.4,0.1,0.7,0.2,1.1,0.3c0.1,0,0.2,0.1,0.3,0.1c0.4,0.1,0.8,0.2,1.2,0.2c0.1,0,0.2,0,0.4,0.1c0.5,0.1,1.1,0.2,1.6,0.2
			c0.5,0.1,1,0.2,1.5,0.3c0.1,0,0.2,0,0.4,0.1c0.5,0.1,1,0.2,1.5,0.3c0,0,0.1,0,0.1,0c0.4,0.1,0.9,0.2,1.3,0.3
			c0.1,0,0.3,0.1,0.4,0.1c0.4,0.1,0.9,0.2,1.3,0.3c0.7,0.2,1.3,0.3,1.9,0.5c2.4,0.7,3,2,3,2v12.5h8c0.5,0.1,1.1,0.1,1.6,0.1
			c5.3,0,9.6-4.3,9.6-9.6v0l0,0v-9.6C267.3,42.2,266.6,40.6,265,39.1z"/>
		<path fill="#FFFFFF" d="M304,19.4h-9.6v19.1v4.8v18.9h7.5c0.7,0.1,1.3,0.2,2,0.2c5.3,0,9.6-4.3,9.6-9.6v-9.6v-4.8v-9.6
			C313.6,23.6,309.3,19.4,304,19.4z"/>
		<rect x="340.6" y="19.3" fill="#FFFFFF" width="19.1" height="43"/>
		<rect x="364" y="19.3" fill="#FFFFFF" width="19.1" height="43"/>
		<path fill="#FFFFFF" d="M395.8,19.3h-9.6v43h19.1V28.8C405.3,23.6,401.1,19.3,395.8,19.3z"/>
		<polygon fill="#FFFFFF" points="45.6,62.2 45.6,62.5 64.8,62.5 64.8,62.2 64.8,19.3 45.6,19.3 		"/>
		<polygon fill="#FFFFFF" points="0,0.5 0,62.2 0,62.5 19.1,62.5 19.1,62.2 19.1,0.5 19.1,0.3 0,0.3 		"/>
		<path fill="#FFFFFF" d="M332.4,35.3h-4.5c-3.7,0-6.9,2.1-8.5,5.2c-0.7,1.1-1,2.1-1,2.8v9.6v0c0,4.6,3.2,8.4,7.5,9.3h4h1.1h6.5
			V39.2v-0.7v-3.2h-3.2H332.4z"/>
	</g>
</g>
<g id="Layer_2">
	<circle fill="#F79224" cx="76.9" cy="29.1" r="9.6"/>
	<polygon fill="#F79224" points="86.5,41 86.5,29.1 76.9,29.1 76.9,19.5 67.3,19.5 67.3,41 	"/>
	<circle fill="#036BAE" cx="32.4" cy="31.6" r="9.6"/>
	<circle fill="#036BAE" cx="32.4" cy="48" r="9.6"/>
	<g>
		<circle fill="#036BAE" cx="121.9" cy="28.9" r="9.6"/>
		<polygon fill="#036BAE" points="131.5,43.3 131.5,28.9 121.9,28.9 121.9,19.4 112.4,19.4 112.4,43.3 		"/>
	</g>
	<rect x="135.6" y="19.4" fill="#036BAE" width="19.1" height="43"/>
	<g>
		<circle fill="#036BAE" cx="100.6" cy="28.9" r="9.6"/>
		<polygon fill="#036BAE" points="91,43.3 91,28.9 100.6,28.9 100.6,19.4 110.1,19.4 110.1,43.3 		"/>
	</g>
	<circle fill="#036BAE" cx="167.1" cy="28.9" r="9.6"/>
	<circle fill="#036BAE" cx="76.9" cy="29.1" r="9.6"/>
	<polygon fill="#036BAE" points="86.5,41 86.5,29.1 76.9,29.1 76.9,19.5 67.3,19.5 67.3,41 	"/>
	<g>
		<circle fill="#036BAE" cx="190.3" cy="29.1" r="9.6"/>
		<polygon fill="#036BAE" points="180.8,43.5 180.8,29.1 190.3,29.1 190.3,19.5 199.9,19.5 199.9,43.5 		"/>
	</g>
	<g>
		<circle fill="#036BAE" cx="212.2" cy="29" r="9.6"/>
		<polygon fill="#036BAE" points="221.8,43.4 221.8,29 212.2,29 212.2,19.4 202.6,19.4 202.6,43.4 		"/>
	</g>
	<rect x="271.7" y="19.4" fill="#036BAE" width="19.1" height="62.2"/>
	<rect x="273.5" y="21.5" fill="#FFFFFF" width="15.5" height="58"/>
	<rect x="226.3" y="38.6" fill="#F79224" width="18.9" height="0.7"/>
	<path fill="#F79224" d="M236.9,46c2.2,0.4,4.5,0.9,6.4,1.4c-1.7-2.4-4.6-4-7.7-4c-1.6,0-3.2,0.4-4.5,1.1
		C232.6,45.2,234.5,45.7,236.9,46z"/>
	<rect x="226" y="49.5" fill="#036BAE" width="19.1" height="4.2"/>
	<g>
		<path fill="#036BAE" d="M267.3,32.1v-3.1h-9.6v-9.6h-9.6v12.2C254.9,31.5,267.3,32.1,267.3,32.1z"/>
		<path fill="#036BAE" d="M266.7,32c0.3-1,0.5-2,0.5-3.1c0-5.3-4.3-9.6-9.6-9.6c-5.3,0-9.6,4.3-9.6,9.6c0,0.9,0.1,1.8,0.4,2.6
			C254.5,31.5,264.4,31.9,266.7,32z"/>
		<rect x="248.1" y="28.2" fill="#036BAE" width="19.1" height="4.2"/>
	</g>
	<path fill="#036BAE" d="M327.9,19.4c-5,0-9.2,3.9-9.5,8.9h0V29v3.1v0.4h19.1v-0.8v-3.3v-8.9H327.9z"/>
	<polygon fill="#036BAE" points="42,62.3 42,48 35.2,48 35.2,32.3 42,32.3 42,19.4 22.9,19.4 22.9,62.3 	"/>
	<polygon fill="#036BAE" points="176.6,62.3 176.6,28.9 167.1,28.9 167.1,19.4 157.5,19.4 157.5,62.3 	"/>
	<polygon fill="#036BAE" points="190.3,62.3 199.9,62.3 199.9,38.7 180.8,38.7 180.8,53.1 190.3,53.1 	"/>
	<polygon fill="#036BAE" points="212.2,62.3 212.2,53 221.8,53 221.8,38.6 202.6,38.6 202.6,62.3 	"/>
	<path fill="#036BAE" d="M235.6,62.3h9.6v-12c-6.8,0.1-19.1-0.5-19.1-0.5V53h9.6V62.3z"/>
	<circle fill="#036BAE" cx="235.6" cy="29" r="9.6"/>
	<path fill="#036BAE" d="M236.9,46c2.9,0.6,5.9,1.2,8.3,1.9v-5.1h-16.9C229.9,44.2,232.6,45.6,236.9,46z"/>
	<path fill="#036BAE" d="M235.6,19.4V29H226v9.6c0,1.2,0.8,3.2,3.1,4.8h16.1v-24H235.6z"/>
	<path fill="#036BAE" d="M256.4,35.9c-2.9-0.6-5.9-1.2-8.3-1.9v5.1H265C263.3,37.7,260.6,36.3,256.4,35.9z"/>
	<path fill="#036BAE" d="M245.1,47.9c2.4,0.7,3,2,3,2l2.8-2.5l-6.9-2.1C244.1,45.3,242.8,47.2,245.1,47.9z"/>
	<path fill="#036BAE" d="M248.1,34c-2.4-0.7-3-2-3-2l-2.8,2.5l6.9,2.1C249.1,36.6,250.5,34.7,248.1,34z"/>
	<polygon fill="#036BAE" points="241.3,32 250.3,36.1 251.5,43.5 249.5,48.3 245.1,47.4 241.3,43.3 	"/>
	<path fill="#036BAE" d="M257.7,62.3v-9.4h9.6v-9.6c0-1.2-0.8-3.2-3.1-4.8h-16.1v23.8H257.7z"/>
	<rect x="340.6" y="19.4" fill="#036BAE" width="19.1" height="43"/>
	<rect x="364" y="19.4" fill="#036BAE" width="19.1" height="43"/>
	<path fill="#036BAE" d="M395.8,19.4h-9.6v43h19.1V28.9C405.3,23.6,401.1,19.4,395.8,19.4z"/>
	<g>
		<path fill="#FFFFFF" d="M264.9,30.1V28h-7.4v-6.5H250v8.3C255.3,29.7,264.9,30.1,264.9,30.1z"/>
		<path fill="#FFFFFF" d="M264.5,30.1c0.3-0.7,0.4-1.4,0.4-2.1c0-3.6-3.3-6.5-7.4-6.5c-4.1,0-7.4,2.9-7.4,6.5c0,0.6,0.1,1.2,0.3,1.8
			C255,29.7,262.6,30,264.5,30.1z"/>
		<rect x="250" y="27.5" fill="#FFFFFF" width="14.8" height="2.8"/>
	</g>
	<polygon fill="#036BAE" points="121.9,62.3 121.9,52.9 131.5,52.9 131.5,38.5 112.4,38.5 112.4,62.3 	"/>
	<polygon fill="#036BAE" points="100.6,62.3 110.1,62.3 110.1,38.5 91,38.5 91,52.9 100.6,52.9 	"/>
	<rect x="45.6" y="19.4" fill="#036BAE" width="19.1" height="43"/>
	<rect y="0.4" fill="#036BAE" width="19.1" height="61.9"/>
	<rect x="342.4" y="21.2" fill="#FFFFFF" width="15.5" height="39"/>
	<rect x="365.8" y="21.2" fill="#FFFFFF" width="15.5" height="39"/>
	<path fill="#FFFFFF" d="M395.8,21.2H388v39h15.5V29.9C403.5,25.1,400.1,21.2,395.8,21.2z"/>
	<path fill="#FFFFFF" d="M328.1,21.2c-3.9,0-7.2,2.9-7.5,6.5h0v0.5v2.3v0.3h15v-0.6v-2.4v-6.5H328.1z"/>
	<path fill="#036BAE" d="M334.3,35.4h-1.9h-4.5c-3.7,0-6.9,2.1-8.5,5.2c-0.7,1.1-1,2.1-1,2.8V53v0c0,4.6,3.2,8.4,7.5,9.3h4h1.1h6.5
		V39.2v-0.7v-3.2H334.3z"/>
	<path fill="#FFFFFF" d="M333,37.3h-1.5H328c-3,0-5.5,1.8-6.8,4.4c-0.6,0.9-0.8,1.8-0.8,2.4v8.1v0c0,3.9,2.6,7.2,6,8h3.2h0.9h5.1
		V40.6V40v-2.7H333z"/>
</g>
<g id="Layer_3">
	<path fill="#036BAE" d="M100.6,43.3c-5.3,0-9.6,4.3-9.6,9.6c0,4.7,3.4,8.7,8,9.4h3.2c4.5-0.8,8-4.7,8-9.4
		C110.1,47.6,105.8,43.3,100.6,43.3z"/>
	<path fill="#036BAE" d="M121.9,43.3c-5.3,0-9.6,4.3-9.6,9.6c0,4.7,3.4,8.7,8,9.4h3.2c4.5-0.8,8-4.7,8-9.4
		C131.5,47.6,127.2,43.3,121.9,43.3z"/>
	<path fill="#036BAE" d="M190.3,43.5c-5.3,0-9.6,4.3-9.6,9.6c0,4.4,3,8.1,7.1,9.2h4.9c4.1-1.1,7.1-4.8,7.1-9.2
		C199.9,47.8,195.6,43.5,190.3,43.5z"/>
	<path fill="#036BAE" d="M212.2,43.4c-5.3,0-9.6,4.3-9.6,9.6c0,4.6,3.2,8.4,7.5,9.3h4c4.3-0.9,7.5-4.8,7.5-9.3
		C221.8,47.7,217.5,43.4,212.2,43.4z"/>
	<path fill="#036BAE" d="M244.7,50.3c-6,0.1-15.9-0.4-18.2-0.5c-0.3,1-0.5,2-0.5,3.1c0,4.6,3.2,8.4,7.5,9.3h4
		c4.3-0.9,7.5-4.8,7.5-9.3C245.1,52.1,245,51.2,244.7,50.3z"/>
	<path fill="#036BAE" d="M257.7,43.3c-5.3,0-9.6,4.3-9.6,9.6c0,4.7,3.4,8.7,8,9.4h3.2c4.5-0.8,8-4.7,8-9.4
		C267.3,47.6,263,43.3,257.7,43.3z"/>
	<path fill="#036BAE" d="M304,19.4h-9.6v19.1v4.8v18.9h5.8h1.8h4c4.3-0.9,7.5-4.8,7.5-9.3v-9.6v-4.8V29
		C313.6,23.7,309.3,19.4,304,19.4z"/>
	<g>
		<path fill="#FFFFFF" d="M228.3,51.7v2.1h7.4v6.5h7.4V52C237.8,52.1,228.3,51.7,228.3,51.7z"/>
		<path fill="#FFFFFF" d="M228.7,51.7c-0.3,0.7-0.4,1.4-0.4,2.1c0,3.6,3.3,6.5,7.4,6.5c4.1,0,7.4-2.9,7.4-6.5c0-0.6-0.1-1.2-0.3-1.8
			C238.2,52,230.5,51.8,228.7,51.7z"/>
		<rect x="228.3" y="51.4" fill="#FFFFFF" width="14.8" height="2.8"/>
	</g>
	<path fill="#FFFFFF" d="M255.2,37.8c-10.5-1.9-11.4-3.3-12.1-4.8c0-1.6,0-11.5,0-11.5h-6.2c0,0,0,0,0,0c-4.7,0-8.6,3.9-8.6,8.7
		c0,0-0.2,8.3,0,8.7c2,4.3,7.8,5.1,11,5.4c4.2,1,10.7,2,10.8,4.9c0,0.6,0,11.3,0,11.3h3.8h1.5h2.9c4.1-0.7,7.1-4.3,7.1-8.6v0v-8.7
		C264.4,39.4,258.4,38.1,255.2,37.8z"/>
</g>
<g id="Layer_4">
	<path fill="#FFFFFF" d="M304.1,21.8h-7.6v17.2v4.3v17h1.5h4.6h3.2c3.4-0.8,6-4.3,6-8.4v-8.6v-4.3v-8.6
		C311.8,25.6,308.3,21.8,304.1,21.8z"/>
</g>
</svg>
