<svg width="220" height="27" viewBox="0 0 220 27" fill="none" xmlns="http://www.w3.org/2000/svg">
<path d="M23.4317 25.9629H14.4668L11.3731 19.3008C10.6348 17.7305 10.0606 16.752 9.65038 16.3652C9.24023 15.9668 8.67187 15.7676 7.94531 15.7676V25.9629H0V0.19336H7.94531V10.0899C8.63672 10.0547 9.17578 9.80859 9.56248 9.35156C9.94918 8.89453 10.5528 7.58203 11.3731 5.41406C11.9707 3.80859 12.5742 2.66016 13.1836 1.96875C13.793 1.26562 14.7832 0.761719 16.1543 0.457032C17.5254 0.152344 19.6758 0 22.6055 0V5.44922H22.2012C20.8418 5.44922 19.834 5.70703 19.1778 6.22266C18.5215 6.73828 17.9824 7.57617 17.5606 8.73633C17.1387 9.88477 16.6817 10.7461 16.1895 11.3203C15.709 11.8828 15.0469 12.334 14.2031 12.6738C15.3516 13.0488 16.3535 13.6992 17.209 14.625C18.0645 15.5391 18.9727 16.9688 19.9336 18.9141L23.4317 25.9629ZM42.1524 21.709H33.0821L31.834 25.9629H23.6953L33.3809 0.19336H42.0645L51.75 25.9629H43.418L42.1524 21.709ZM40.4824 16.1367L37.6348 6.87305L34.8047 16.1367H40.4824ZM77.9942 25.9629H70.0313V6.52148H63.8086V14.4492C63.8086 17.707 63.6328 20.1035 63.2813 21.6387C62.9414 23.1621 62.1328 24.2813 60.8555 24.9961C59.5899 25.7109 57.5391 26.0684 54.7031 26.0684C53.836 26.0684 52.8399 25.9746 51.7149 25.7871V20.5664H52.9102C53.9883 20.5664 54.75 20.332 55.1953 19.8633C55.6406 19.3828 55.8633 18.5098 55.8633 17.2441V0.19336H77.9942V25.9629ZM83.2676 0.19336H104.607V5.69531H91.2481V9.79101H103.64V15.0469H91.2481V20.127H104.994V25.9629H83.2676V0.19336ZM109.318 0.19336H124.224C126.709 0.19336 128.613 0.808594 129.937 2.03906C131.273 3.26953 131.941 4.79297 131.941 6.60937C131.941 8.13281 131.467 9.43945 130.517 10.5293C129.884 11.2559 128.959 11.8301 127.74 12.252C129.592 12.6973 130.951 13.4649 131.818 14.5547C132.697 15.6328 133.136 16.9922 133.136 18.6328C133.136 19.9688 132.826 21.1699 132.205 22.2363C131.584 23.3027 130.734 24.1465 129.656 24.7676C128.988 25.1543 127.98 25.4356 126.633 25.6113C124.84 25.8457 123.65 25.9629 123.064 25.9629H109.318V0.19336ZM117.351 10.3008H120.814C122.056 10.3008 122.918 10.0899 123.398 9.66797C123.89 9.23437 124.136 8.61328 124.136 7.80469C124.136 7.05469 123.89 6.46875 123.398 6.04687C122.918 5.625 122.074 5.41406 120.867 5.41406H117.351V10.3008ZM117.351 20.4258H121.412C122.783 20.4258 123.75 20.1856 124.312 19.7051C124.875 19.2129 125.156 18.5567 125.156 17.7363C125.156 16.9746 124.875 16.3652 124.312 15.9082C123.761 15.4395 122.789 15.2051 121.394 15.2051H117.351V20.4258ZM153.175 21.709H144.105L142.857 25.9629H134.718L144.404 0.19336H153.088L162.773 25.9629H154.441L153.175 21.709ZM151.506 16.1367L148.658 6.87305L145.828 16.1367H151.506ZM189.017 25.9629H181.054V6.52148H174.832V14.4492C174.832 17.707 174.656 20.1035 174.304 21.6387C173.965 23.1621 173.156 24.2813 171.879 24.9961C170.613 25.7109 168.562 26.0684 165.726 26.0684C164.859 26.0684 163.863 25.9746 162.738 25.7871V20.5664H163.933C165.011 20.5664 165.773 20.332 166.218 19.8633C166.664 19.3828 166.886 18.5098 166.886 17.2441V0.19336H189.017V25.9629ZM210.164 21.709H201.093L199.845 25.9629H191.707L201.392 0.19336H210.076L219.761 25.9629H211.429L210.164 21.709ZM208.494 16.1367L205.646 6.87305L202.816 16.1367H208.494Z" fill="#DEDEDE"/>
</svg>
