<svg width="60" height="60" viewBox="0 0 60 60" fill="none" xmlns="http://www.w3.org/2000/svg">
<path d="M0 0H57C58.6569 0 60 1.34315 60 3V57C60 58.6569 58.6569 60 57 60H0V0Z" fill="#EC8B33"/>
<path d="M38.6905 37.2973L35.462 34.091C37.9829 30.8625 37.7176 26.263 34.8207 23.3662C33.2948 21.8403 31.2605 21 29.0934 21C26.9264 21 24.892 21.8403 23.3662 23.3662C21.8403 24.892 21 26.9264 21 29.0934C21 31.2605 21.8403 33.2949 23.3662 34.8207C24.892 36.3465 26.9264 37.1868 29.0934 37.1868C30.8845 37.1868 32.6536 36.5898 34.0688 35.462L37.2752 38.7125C37.4742 38.9115 37.7174 39 37.9829 39C38.2482 39 38.4914 38.8894 38.6906 38.7125C39.0885 38.3366 39.0885 37.6954 38.6904 37.2973L38.6905 37.2973ZM35.1967 29.0934C35.1967 30.7298 34.5555 32.2555 33.4056 33.4054C32.2557 34.5554 30.7078 35.1965 29.0936 35.1965C27.4793 35.1965 25.9315 34.5553 24.7816 33.4054C23.6316 32.2555 22.9904 30.7076 22.9904 29.0934C22.9904 27.457 23.6316 25.9313 24.7816 24.7814C25.9315 23.6314 27.4793 22.9902 29.0936 22.9902C30.73 22.9902 32.2557 23.6314 33.4056 24.7814C34.5554 25.9311 35.1967 27.4569 35.1967 29.0934Z" fill="white"/>
</svg>
