<svg width="22" height="24" viewBox="0 0 22 24" fill="none" xmlns="http://www.w3.org/2000/svg">
<path d="M21.0002 3.99975H16.0001V2.99983C16.0001 2.20427 15.6841 1.44116 15.1216 0.878562C14.559 0.315985 13.7958 0 12.9999 0H9.00016C8.20425 0 7.44112 0.315994 6.87853 0.878562C6.31595 1.44114 5.99997 2.20429 5.99997 2.99983V3.99975H0.999921C0.44746 3.99975 0 4.44758 0 5.00003C0 5.55214 0.447478 5.99995 0.999921 5.99995H2.99976V6.05994L3.88984 21.1753C3.93448 21.9401 4.27035 22.6589 4.82806 23.1842C5.38611 23.7095 6.12379 24.0014 6.89005 24H15.1152C15.8811 24.0014 16.6192 23.7095 17.1768 23.1842C17.7345 22.659 18.0704 21.9401 18.1151 21.1753L19.0003 6.05994V5.99995H21.0001C21.5526 5.99995 22 5.55212 22 5.00003C22 4.44757 21.5525 3.99975 21.0001 3.99975H21.0002ZM8.00004 2.99983C8.00004 2.44772 8.44787 1.99991 9.00032 1.99991H13.0004H13.0001C13.2655 1.99991 13.5198 2.10524 13.7074 2.29288C13.8951 2.48018 14.0004 2.73478 14.0004 2.99985V3.99977H8.00006L8.00004 2.99983ZM16.1154 21.0598C16.0836 21.5886 15.6449 22.0008 15.1155 21.9997H6.88503C6.35559 22.0008 5.91681 21.5885 5.88511 21.0598L5.00026 5.99986H17.0004L16.1154 21.0598Z" fill="#9D9D9D"/>
</svg>
