<svg width="19" height="18" viewBox="0 0 19 18" fill="none" xmlns="http://www.w3.org/2000/svg">
<path d="M12.7308 6.81414C12.8556 6.64441 12.8356 6.40859 12.684 6.26229C12.5323 6.11613 12.296 6.10455 12.1308 6.23538L4.6057 12.6393L0.62125 11.0976C0.389481 11.0093 0.200512 10.8351 0.0937684 10.6111C-0.0128304 10.3872 -0.0292484 10.1308 0.0481424 9.89512C0.125399 9.65945 0.290679 9.46266 0.509262 9.34558L17.0008 0.105269C17.1747 0.0068806 17.3787 -0.02394 17.574 0.0187265C17.7692 0.0613929 17.9419 0.174449 18.0589 0.336366C18.176 0.49828 18.2293 0.697599 18.2086 0.896408L16.748 15.9776C16.7173 16.2875 16.544 16.5654 16.2792 16.7292C16.0143 16.893 15.6884 16.9241 15.3974 16.813L10.5581 14.9415L7.52287 17.7875C7.37294 17.9286 7.17346 18.0047 6.96755 17.9998C6.76176 17.9948 6.56621 17.9091 6.42312 17.761C6.28005 17.613 6.20104 17.4146 6.2032 17.2086V14.9821L12.7308 6.81414Z" fill="white"/>
</svg>
