<svg width="24" height="24" viewBox="0 0 24 24" fill="none" xmlns="http://www.w3.org/2000/svg">
<path d="M23.0002 19H11.0001V18.0001C11.0001 17.4696 10.7895 16.961 10.4142 16.5858C10.0392 16.2108 9.53038 16.0002 8.99987 16.0002H6.00002C5.46953 16.0002 4.96063 16.2108 4.58572 16.5858C4.21078 16.961 3.99977 17.4696 3.99977 18.0001V19H0.99992C0.447459 19 0 19.4478 0 20.0003C0 20.5524 0.447477 21.0002 0.99992 21.0002H4.00013V22.0001H3.99978C3.99978 22.5306 4.21079 23.0391 4.58573 23.4144C4.96066 23.7893 5.46952 24 6.00003 24H9.00023H8.99989C9.53037 24 10.0393 23.7893 10.4142 23.4144C10.7895 23.0391 11.0001 22.5306 11.0001 22.0001V21.0002H23.0003C23.5527 21.0002 24.0002 20.5524 24.0002 20.0003C24.0002 19.4478 23.5527 19 23.0003 19H23.0002ZM9.00009 22.0002H6.00024V18.0001H9.00045L9.00009 22.0002Z" fill="#333333"/>
<path d="M23.0002 10.9999H20.0004V9.99998C20.0004 9.46949 19.7894 8.96059 19.4144 8.58568C19.0395 8.2104 18.5306 7.99973 18.0001 7.99973H15.0003C14.4698 7.99973 13.9609 8.2104 13.586 8.58568C13.2107 8.96061 13 9.46947 13 9.99998V10.9999H0.99992C0.447459 10.9999 0 11.4474 0 11.9998C0 12.5523 0.447477 12.9997 0.99992 12.9997H13V13.9997C13 14.5301 13.2107 15.039 13.586 15.414C13.9609 15.7892 14.4698 15.9999 15.0003 15.9999H18.0005H18.0002C18.5306 15.9999 19.0395 15.7892 19.4145 15.414C19.7894 15.039 20.0004 14.5302 20.0004 13.9997V12.9997H23.0006H23.0003C23.5527 12.9997 24.0002 12.5523 24.0002 11.9998C24.0002 11.4474 23.5527 10.9999 23.0003 10.9999H23.0002ZM18.0002 13.9998H15.0003V9.99998H18.0005L18.0002 13.9998Z" fill="#333333"/>
<path d="M23.0002 2.99982H11.0001V1.9999C11.0001 1.46941 10.7895 0.960867 10.4142 0.585595C10.0392 0.210662 9.53038 0 8.99987 0H6.00002C5.46953 0 4.96063 0.210662 4.58572 0.585595C4.21078 0.960876 3.99977 1.46939 3.99977 1.9999V2.99982H0.99992C0.447459 2.99982 0 3.44764 0 3.99974C0 4.5522 0.447477 5.00002 0.99992 5.00002H4.00013V5.99994H3.99978C3.99978 6.53042 4.21079 7.03897 4.58573 7.41424C4.96066 7.78917 5.46952 7.99983 6.00003 7.99983H9.00023H8.99989C9.53037 7.99983 10.0393 7.78917 10.4142 7.41424C10.7895 7.03896 11.0001 6.53044 11.0001 5.99994V5.00002H23.0003C23.5527 5.00002 24.0002 4.55219 24.0002 3.99974C24.0002 3.44763 23.5527 2.99982 23.0003 2.99982H23.0002ZM9.00009 6.00003H6.00024V1.9999H9.00045L9.00009 6.00003Z" fill="#333333"/>
</svg>
