<svg width="25" height="18" viewBox="0 0 25 18" fill="none" xmlns="http://www.w3.org/2000/svg">
<path d="M21.1193 0H3.11962C2.32408 0 1.56099 0.315985 0.998411 0.878895C0.435849 1.44146 0.119873 2.20459 0.119873 3.00011V14.9999C0.119873 15.7954 0.435858 16.5585 0.998411 17.1211C1.56097 17.684 2.3241 18 3.11962 18H21.1193C21.9148 18 22.6779 17.684 23.2405 17.1211C23.8031 16.5585 24.1191 15.7954 24.1191 14.9999V11.5V11.4551V6.54514V6.50015V3.0003C24.1191 2.20476 23.8031 1.44167 23.2405 0.879089C22.678 0.31618 21.9148 0.000194819 21.1193 0.000194819V0ZM3.11962 2.00014H21.1193C21.3844 2.00014 21.639 2.10547 21.8263 2.29275C22.0139 2.48039 22.1192 2.73464 22.1192 3.00005V4.99984H2.11957V3.00005C2.11957 2.44761 2.56738 2.00016 3.11946 2.00016L3.11962 2.00014ZM21.1193 15.9999H3.11962C2.56753 15.9999 2.11973 15.5524 2.11973 15V7.00032H22.1194V11.5001V11.5451V14.9999C22.1194 15.2653 22.014 15.5196 21.8264 15.7072C21.6391 15.8945 21.3845 15.9998 21.1195 15.9998L21.1193 15.9999Z" fill="#EC8B33"/>
<path d="M7.11967 8.99985H5.11988C4.56743 8.99985 4.11963 9.44766 4.11963 9.99974C4.11963 10.5522 4.56744 10.9996 5.11988 10.9996H7.11967C7.67211 10.9996 8.11956 10.5522 8.11956 9.99974C8.11956 9.44764 7.67209 8.99985 7.11967 8.99985Z" fill="#EC8B33"/>
</svg>
