<svg width="22" height="24" viewBox="0 0 22 24" fill="none" xmlns="http://www.w3.org/2000/svg">
<path d="M21.6694 6.31082C21.6724 5.95757 21.4856 5.6303 21.1798 5.45367L11.3846 0.120167C11.0915 -0.0400555 10.7372 -0.0400555 10.4441 0.120167L0.609471 5.45367C0.303711 5.63029 0.116841 5.95757 0.11991 6.31082V6.3402V6.36958V17.6341C0.116836 17.9874 0.303711 18.3146 0.609471 18.4913L10.4047 23.8788C10.4488 23.8788 10.4976 23.9181 10.5417 23.9376H10.542C10.569 23.9495 10.5967 23.9594 10.6254 23.9669C10.7856 24.011 10.9547 24.011 11.115 23.9669C11.1433 23.9594 11.1713 23.9495 11.1983 23.9376C11.2424 23.9376 11.2912 23.9034 11.3353 23.8788L21.1305 18.4913C21.4554 18.3276 21.6628 17.9979 21.6693 17.6341V6.36958V6.3402V6.31082H21.6694ZM10.8946 2.09887L18.6575 6.32552L10.8946 10.6352L3.13172 6.32517L10.8946 2.09887ZM2.0789 8.02481L9.91527 12.3348V21.3657L2.0789 17.0557V8.02481ZM19.7103 17.0565L11.874 21.3665V12.3348L19.7103 8.02481V17.0565Z" fill="#EC8B33"/>
</svg>
