<svg width="22" height="24" viewBox="0 0 22 24" fill="none" xmlns="http://www.w3.org/2000/svg">
<path d="M5.75996 6.24C5.22961 6.24 4.80005 5.81009 4.80005 5.28009V0.959915C4.80005 0.429892 5.22962 0 5.75996 0C6.2903 0 6.71988 0.429909 6.71988 0.959915V5.28009C6.71988 5.53455 6.61876 5.77897 6.43863 5.95877C6.25883 6.13891 6.01441 6.24002 5.75995 6.24002L5.75996 6.24Z" fill="#EC8B33"/>
<path d="M15.3598 6.24C14.8295 6.24 14.3999 5.81009 14.3999 5.28009V0.959915C14.3999 0.429892 14.8295 0 15.3598 0C15.8902 0 16.3197 0.429909 16.3197 0.959915V5.28009C16.3197 5.53455 16.2186 5.77897 16.0385 5.95877C15.8587 6.13891 15.6143 6.24002 15.3598 6.24002L15.3598 6.24Z" fill="#EC8B33"/>
<path d="M5.75995 19.2C5.3729 19.1983 5.02469 18.9646 4.87667 18.607C4.72901 18.2491 4.81037 17.8376 5.08325 17.5633C5.45758 17.191 6.06228 17.191 6.4366 17.5633C6.70948 17.8376 6.79084 18.2491 6.64319 18.607C6.49519 18.9646 6.14698 19.1983 5.7599 19.2H5.75995Z" fill="#EC8B33"/>
<path d="M15.3598 19.2C14.9728 19.1983 14.6245 18.9646 14.4765 18.607C14.3289 18.2491 14.4102 17.8376 14.6831 17.5633C15.0574 17.191 15.6621 17.191 16.0364 17.5633C16.3093 17.8376 16.3907 18.2491 16.243 18.607C16.095 18.9646 15.7468 19.1983 15.3598 19.2H15.3598Z" fill="#EC8B33"/>
<path d="M5.75992 14.88C5.37186 14.8804 5.02197 14.647 4.87294 14.2891C4.72361 13.9308 4.80498 13.5183 5.07819 13.2431C5.45955 12.8828 6.0555 12.8828 6.43659 13.2431C6.70947 13.5176 6.79083 13.9291 6.64317 14.2867C6.49518 14.6443 6.14697 14.8784 5.75989 14.8801L5.75992 14.88Z" fill="#EC8B33"/>
<path d="M10.56 19.2C10.1719 19.2004 9.82202 18.9673 9.67299 18.6091C9.52366 18.2511 9.60502 17.8383 9.87824 17.5634C10.2603 17.2055 10.8546 17.2055 11.2366 17.5634C11.4171 17.7426 11.5189 17.986 11.5199 18.2401C11.5199 18.4946 11.4188 18.739 11.2386 18.9188C11.0588 19.0989 10.8144 19.2 10.56 19.2V19.2Z" fill="#EC8B33"/>
<path d="M10.56 14.88C10.1719 14.8804 9.82202 14.647 9.67299 14.2891C9.52366 13.9308 9.60502 13.5183 9.87824 13.2431C10.2596 12.8828 10.8555 12.8828 11.2366 13.2431C11.5095 13.5176 11.5909 13.9291 11.4432 14.2867C11.2952 14.6443 10.947 14.8784 10.5599 14.8801L10.56 14.88Z" fill="#EC8B33"/>
<path d="M15.3598 14.88C14.8295 14.88 14.3999 14.4501 14.3999 13.9201C14.3996 13.6663 14.4997 13.4232 14.6781 13.2431C15.0595 12.8828 15.6555 12.8828 16.0365 13.2431C16.3094 13.5176 16.3908 13.9291 16.2431 14.2867C16.0951 14.6443 15.7469 14.8784 15.3598 14.8801L15.3598 14.88Z" fill="#EC8B33"/>
<path d="M18.2398 24H2.87981C2.11608 24 1.3835 23.6966 0.843411 23.1566C0.303326 22.6165 0 21.8839 0 21.1202V5.76016C0 4.99643 0.303351 4.26385 0.843411 3.72376C1.38347 3.18367 2.1161 2.88035 2.87981 2.88035H18.2398C19.0035 2.88035 19.7361 3.1837 20.2762 3.72376C20.8163 4.26382 21.1196 4.99645 21.1196 5.76016V21.1202C21.1196 21.8839 20.8163 22.6165 20.2762 23.1566C19.7362 23.6966 19.0035 24 18.2398 24ZM2.87981 4.79997C2.34979 4.79997 1.9199 5.22988 1.9199 5.75989V21.1199C1.9199 21.3744 2.02101 21.6184 2.20114 21.7986C2.38128 21.9787 2.62536 22.0798 2.87983 22.0798H18.2398C18.4943 22.0798 18.7384 21.9787 18.9185 21.7986C19.0986 21.6184 19.1998 21.3744 19.1998 21.1199V5.75989C19.1998 5.50542 19.0986 5.26134 18.9185 5.0812C18.7384 4.90106 18.4943 4.79995 18.2398 4.79995L2.87981 4.79997Z" fill="#EC8B33"/>
<path d="M20.1599 10.0801H0.959915C0.429558 10.0801 0 9.65014 0 9.12014C0 8.58978 0.429575 8.15988 0.959915 8.15988H20.1599C20.6903 8.15988 21.1198 8.58979 21.1198 9.12014C21.1198 9.65016 20.6903 10.0801 20.1599 10.0801Z" fill="#EC8B33"/>
</svg>
