<svg width="96" height="44" viewBox="0 0 96 44" fill="none" xmlns="http://www.w3.org/2000/svg">
<path d="M68.9066 16.4655C68.9066 17.9213 68.6369 19.2097 68.0969 20.3307C67.5569 21.4517 66.7878 22.3163 65.7898 22.9246C64.799 23.5261 63.6678 23.8269 62.3964 23.8269C61.1251 23.8269 59.9973 23.5364 59.013 22.9554C58.0288 22.3675 57.2599 21.5303 56.7062 20.4435C56.1594 19.3567 55.8723 18.1093 55.845 16.7012V15.8606C55.845 14.3978 56.1116 13.1094 56.6447 11.9953C57.1847 10.8743 57.9536 10.0097 58.9515 9.40136C59.9563 8.79303 61.0977 8.48889 62.3759 8.48889C63.6404 8.48889 64.7682 8.78961 65.7596 9.39112C66.7504 9.99264 67.5195 10.8504 68.0661 11.9646C68.6199 13.0718 68.9001 14.3432 68.9066 15.7785V16.4655ZM65.2465 15.84C65.2465 14.3568 64.9972 13.2325 64.4982 12.4669C64.0061 11.6945 63.2987 11.3084 62.3759 11.3084C60.5714 11.3084 59.6179 12.6617 59.5155 15.3684L59.5051 16.4655C59.5051 17.9282 59.7478 19.0526 60.2331 19.8386C60.7184 20.6246 61.4395 21.0176 62.3964 21.0176C63.3055 21.0176 64.0061 20.6314 64.4982 19.8591C64.9906 19.0867 65.2399 17.976 65.2465 16.527V15.84ZM78.4624 19.654C78.4624 19.1277 78.2741 18.7176 77.8988 18.4237C77.5293 18.1298 76.8765 17.8257 75.9401 17.5112C75.0037 17.1968 74.238 16.8927 73.6435 16.5988C71.7091 15.6487 70.7419 14.3432 70.7419 12.6822C70.7419 11.8552 70.9814 11.1272 71.4598 10.4984C71.9453 9.86271 72.6284 9.37059 73.5103 9.02203C74.3922 8.66658 75.383 8.48889 76.4834 8.48889C77.5569 8.48889 78.5169 8.6803 79.3646 9.06304C80.219 9.44578 80.8817 9.99264 81.3535 10.7035C81.8253 11.4075 82.0609 12.214 82.0609 13.1231H78.4723C78.4723 12.5148 78.2846 12.0432 77.9086 11.7083C77.5398 11.3733 77.0372 11.2058 76.4014 11.2058C75.759 11.2058 75.2498 11.3494 74.8738 11.6365C74.5051 11.9167 74.32 12.2755 74.32 12.713C74.32 13.0957 74.5254 13.4444 74.9355 13.7588C75.3456 14.0663 76.0667 14.3876 77.0989 14.7225C78.1311 15.0506 78.9782 15.406 79.6416 15.7888C81.2544 16.7184 82.0609 17.9999 82.0609 19.6335C82.0609 20.9391 81.5687 21.9643 80.5845 22.7093C79.6002 23.4544 78.2505 23.8269 76.5346 23.8269C75.3253 23.8269 74.2282 23.6116 73.2439 23.1809C72.2662 22.7435 71.528 22.1488 71.0293 21.397C70.5372 20.6383 70.2911 19.7668 70.2911 18.7826H73.9001C73.9001 19.5823 74.1048 20.1735 74.5149 20.5562C74.9322 20.9322 75.6055 21.1202 76.5346 21.1202C77.1297 21.1202 77.5976 20.9937 77.9394 20.7408C78.2879 20.481 78.4624 20.1188 78.4624 19.654ZM83.9067 23.6218V8.69394H89.2689C91.1895 8.69394 92.6488 9.04598 93.6468 9.74998C94.6514 10.454 95.1534 11.4758 95.1534 12.8155C95.1534 13.5879 94.9762 14.2474 94.6206 14.7943C94.2649 15.3411 93.742 15.7444 93.0517 16.0041C93.8312 16.2091 94.429 16.5919 94.8463 17.1524C95.263 17.7129 95.4716 18.3964 95.4716 19.2029C95.4716 20.6656 95.0064 21.7661 94.0773 22.5043C93.1547 23.2357 91.784 23.6082 89.9657 23.6218H83.9067ZM87.5051 17.2754V20.8536H89.8634C90.5123 20.8536 91.0117 20.7066 91.3601 20.4127C91.7085 20.112 91.8831 19.6916 91.8831 19.1516C91.8831 17.9077 91.2643 17.2822 90.0274 17.2754H87.5051ZM87.5051 14.9173H89.3817C90.1672 14.9105 90.7282 14.7669 91.0628 14.4867C91.3975 14.2064 91.5655 13.7929 91.5655 13.2461C91.5655 12.6173 91.3844 12.1662 91.0222 11.8928C90.6593 11.6125 90.0753 11.4724 89.2689 11.4724H87.5051V14.9173Z" fill="#EC8B33"/>
<path d="M63.4014 33.0884C63.3121 34.0923 62.9626 34.8769 62.3528 35.442C61.7504 35.9998 60.9547 36.2787 59.9657 36.2787C58.8353 36.2787 57.9392 35.9068 57.2773 35.1632C56.6155 34.412 56.2845 33.4007 56.2845 32.129C56.2845 30.9392 56.6155 29.9501 57.2773 29.1618C57.9466 28.3661 58.8687 27.9683 60.0437 27.9683C60.8841 27.9683 61.624 28.1951 62.2636 28.6487C62.9031 29.1023 63.2601 29.7307 63.3344 30.5339H62.2859C62.1669 30.0133 61.9066 29.608 61.505 29.318C61.1035 29.0206 60.6089 28.8718 60.0214 28.8718C59.1365 28.8718 58.4672 29.1841 58.0136 29.8088C57.5674 30.4335 57.3443 31.2032 57.3443 32.1179C57.3443 33.1292 57.5822 33.925 58.0582 34.505C58.5341 35.0851 59.1848 35.3751 60.0103 35.3751C60.687 35.3751 61.2262 35.1817 61.6277 34.7951C62.0293 34.4009 62.271 33.832 62.3528 33.0884H63.4014ZM71.173 28.1467L67.8266 31.337L71.3069 36.089H69.9683L67.0904 32.0509L65.7741 33.3003V36.089H64.7253V28.1467H65.7741V32.0844L69.801 28.1467H71.173ZM78.0215 28.1467V36.089H76.9729V29.0614H74.0392L73.883 33.5345C73.8535 34.3674 73.6822 35.0293 73.3699 35.5201C73.0654 36.0109 72.6225 36.2563 72.0425 36.2563C71.8049 36.2563 71.5516 36.2043 71.2839 36.1002V35.2078C71.4034 35.2821 71.593 35.3193 71.8528 35.3193C72.0687 35.3193 72.24 35.271 72.3659 35.1743C72.4998 35.0702 72.6153 34.8397 72.7118 34.4827C72.8161 34.1258 72.8758 33.6275 72.8902 32.988L73.0352 28.1467H78.0215ZM83.137 28.1467L86.238 36.089H85.0668L84.1855 33.6573H80.8502L79.9467 36.089H78.8312L81.9546 28.1467H83.137ZM83.8732 32.8206L82.5235 29.1507L81.1514 32.8206H83.8732ZM94.0294 38.0634H93.0143V36.089H87.2695V38.0634H86.2544V35.1743H87.0353C87.3397 34.6315 87.5891 33.8543 87.7827 32.8429C87.9756 31.8241 88.0727 30.7719 88.0727 29.6861V28.1467H93.1482V35.1743H94.0294V38.0634ZM92.0996 35.1743V29.0614H89.0989V30.1435C89.0989 31.1028 89.0097 32.0547 88.8312 32.9991C88.66 33.9361 88.448 34.6612 88.1954 35.1743H92.0996Z" fill="#EC8B33"/>
<path d="M20.4386 44L0 32.1997L11.7763 25.373L32.2149 37.1733L20.4386 44Z" fill="#F2AE71"/>
<path d="M43.9827 20.3549V43.9554L32.1824 37.1703V13.5697L43.9827 20.3549Z" fill="#EC8B33"/>
<path d="M11.8035 11.8002L32.2421 0L32.2661 13.6119L11.8275 25.4122L11.8035 11.8002Z" fill="#CA782E"/>
</svg>
