<svg width="34" height="20" viewBox="0 0 34 20" fill="none" xmlns="http://www.w3.org/2000/svg">
<path d="M3.65665 2.34778C7.02848 -0.807865 13.0263 -0.759371 16.3801 2.45036C16.8464 3.09005 14.4646 3.851 16.7382 3.49478C17.426 3.40524 18.118 3.94427 18.2634 4.60259C17.1465 4.66604 16.0255 4.53919 14.9159 4.65667C14.5878 4.92901 14.388 5.31691 14.2819 5.7235C15.8242 5.7664 17.3701 5.69928 18.9166 5.77758C18.9947 6.10395 19.5842 6.60938 19.1086 6.8164C17.3386 6.95071 15.5613 6.76605 13.7949 6.88917C13.7649 7.17636 13.4368 7.57549 13.8042 7.75824C15.701 7.85336 17.6015 7.73402 19.5019 7.81605C19.6065 7.96712 19.7017 8.12378 19.7892 8.28795C19.4144 8.34576 19.0672 8.66281 18.6816 8.52851C17.8644 7.82169 17.8478 8.64791 17.6294 9.04699C17.4861 9.31741 17.3458 9.58788 17.2361 9.8732C17.0865 9.4368 17.0663 8.89964 16.6875 8.59004C16.0292 8.176 15.1007 8.22636 14.5278 8.75607C14.1681 9.25773 14.004 9.86016 13.8006 10.4346C13.3136 9.64755 13.6236 11.1526 13.5579 11.5443C12.4948 11.7532 13.2727 10.263 13.3923 9.84712C14.3249 9.19061 13.8135 7.26962 12.4855 7.80487C12.3064 8.58445 12.1838 9.37713 12.0528 10.166C11.8349 10.2313 11.7082 10.3749 11.6745 10.5987C11.3407 10.3152 10.9789 10.0709 10.6451 9.79117C10.2217 9.06194 11.6186 9.76503 11.8738 9.24096C12.5564 7.84032 11.085 8.39612 10.4101 8.36625C10.0033 8.45393 9.74767 8.83624 9.4418 9.08989C9.36365 9.08803 9.20529 9.0843 9.12662 9.08244C8.72604 8.65908 8.37151 7.97463 7.6014 8.34949C6.80852 7.98021 6.12794 8.72248 6.28838 9.43308C6.37222 9.42749 6.53991 9.41439 6.62375 9.40694C6.97465 9.51325 7.63659 9.28759 7.64021 9.83216C6.92237 9.85271 6.30494 10.2108 5.74754 10.6286C5.70044 9.54497 6.02702 8.50056 6.10724 7.42628C5.53845 7.42628 5.01417 7.37779 4.4604 7.43746C4.00909 8.28609 4.07638 9.37154 3.36216 10.0933C3.30575 9.20179 3.3487 8.31031 3.28918 7.42069C2.81149 7.3871 2.33793 7.39456 1.86799 7.44864C1.78053 7.73402 1.70394 8.02307 1.63096 8.31403C0.814269 8.43711 1.44257 9.63078 1.25056 10.2089C0.764066 10.9941 0.959696 11.9621 0.724729 12.8256L1.52486 12.7584C1.57351 12.7099 1.67237 12.6129 1.72257 12.5645C2.12005 12.2604 2.1925 11.742 2.33637 11.2963C2.33637 11.8073 2.35501 12.3201 2.3959 12.8311C2.64225 12.8107 2.94967 12.8946 3.15514 12.7137C3.79276 12.2437 3.91749 11.4231 4.18247 10.7293C4.21974 11.0072 4.25907 11.2851 4.2984 11.5629C4.25131 11.8595 4.20473 12.156 4.14728 12.4526C3.77982 12.9897 4.66949 13.0736 4.98467 12.6745C5.07214 12.5999 5.24759 12.4544 5.33712 12.3817C5.90591 12.5756 6.68379 13.1389 7.22049 12.6521C7.29709 12.5943 7.44821 12.4787 7.52274 12.4227C7.55431 12.5122 7.61796 12.695 7.64798 12.7864C8.65099 12.6913 9.8429 13.1389 10.7771 12.6614C11.0591 12.4824 11.3464 12.3071 11.6036 12.0889C11.749 12.7491 12.4094 13.1762 13.0414 12.6969C13.2934 12.5346 13.5693 12.3724 13.6365 12.0534C14.3808 12.8293 15.5685 13.1594 16.555 12.6559C16.6373 12.5999 16.8013 12.488 16.8836 12.4302C16.9209 12.9505 17.262 13.0382 17.9094 12.6932C18.9016 12.2418 18.1014 10.4756 19.0061 9.79676C19.0284 10.7218 19.3601 11.5741 19.7167 12.4115C19.5563 12.585 19.4051 12.764 19.2504 12.9375C17.5621 13.137 15.8558 12.8983 14.1717 13.0531C13.6888 13.2825 14.153 13.829 14.3528 14.1124C15.8351 14.1814 17.3256 14.0808 18.812 14.1516C18.7261 14.5657 18.5118 14.9498 18.1832 15.2203C17.1336 15.2763 16.0814 15.2259 15.035 15.2687C15.1193 15.5896 15.3206 15.8581 15.5033 16.1304C16.0048 16.151 17.0104 16.1901 17.5119 16.2106C17.3738 16.7011 16.9131 16.9995 16.6538 17.421C15.5685 18.0066 14.6473 18.9 13.4461 19.2544C10.6337 20.2745 7.3271 20.116 4.8113 18.4188C0.756306 16.2349 -0.968687 10.9605 0.539967 6.69333C1.04354 5.78317 1.2692 4.64736 2.05639 3.92745C2.74111 3.54141 2.80994 2.5399 3.65665 2.34778Z" fill="#C30607"/>
<path d="M9.10079 10.5703C9.53708 10.906 9.96614 11.2566 10.4454 11.5308C10.037 11.7677 9.59505 11.5737 9.16393 11.5569C9.06715 11.7695 8.9683 11.9821 8.86944 12.1929L8.78198 12.081C8.86945 11.5737 8.99418 11.0739 9.10079 10.5703Z" fill="#C30607"/>
<path d="M6.84911 10.9668C7.10115 10.9538 7.35269 10.9538 7.60629 10.9668C7.62544 11.2465 7.61043 11.7109 7.22796 11.6979C6.84394 11.7109 6.82685 11.2465 6.84911 10.9668Z" fill="#C30607"/>
<path d="M15.2239 11.5254C15.0449 10.6003 16.186 11.0125 16.7792 10.9118C16.8666 10.9248 17.0405 10.9491 17.128 10.9621L17.335 11.005C17.3221 11.0796 17.2977 11.2307 17.2848 11.3072C17.1782 11.4489 17.0721 11.5907 16.9696 11.7324C16.9562 11.6447 16.9303 11.4657 16.9173 11.3762C16.3708 11.5068 15.7498 11.9376 15.2239 11.5254Z" fill="#C30607"/>
<path d="M20.4029 0.419334C24.0377 -0.695931 28.1987 0.45665 30.6773 3.36238C31.2927 4.37325 32.1673 5.20878 32.4768 6.42668C34.575 11.2813 31.8464 17.5274 26.8334 19.2153C24.9087 20.1254 22.4897 20.2634 20.4738 19.5267C19.1008 19.0548 17.6314 18.555 16.6538 17.4211C16.9131 16.9996 17.3737 16.7012 17.5119 16.2107C17.0104 16.1901 16.0048 16.151 15.5033 16.1305C15.3206 15.8582 15.1193 15.5896 15.0349 15.2688C16.0814 15.2259 17.133 15.2762 18.1831 15.2203C18.5118 14.9499 18.7261 14.5657 18.812 14.1517C17.3256 14.0808 15.835 14.1815 14.3523 14.1125C14.153 13.829 13.6888 13.2825 14.1716 13.0532C15.8557 12.8984 17.5621 13.1371 19.2503 12.9375C19.4051 12.7641 19.5562 12.585 19.7161 12.4116C20.3041 12.8984 21.3521 13.3143 21.9545 12.6447C22.1207 12.5645 22.292 12.4955 22.471 12.4377C22.8142 13.0065 23.4839 13.0997 24.0433 12.8014C24.1179 12.8032 24.2654 12.8051 24.3399 12.807C24.6717 12.7379 25.3973 13.0606 25.3243 12.4918C25.5147 12.5888 25.6959 12.7081 25.8879 12.8107C26.1824 12.8088 26.5778 12.9449 26.8034 12.6857C27.5125 12.0572 27.1207 10.9046 27.6952 10.1698C27.721 10.3339 27.7769 10.6584 27.8049 10.8207C27.5736 11.7775 28.2283 13.1856 29.4202 12.833C29.8715 12.613 30.6809 13.0848 31.1043 12.6689C31.1752 12.5925 31.3149 12.4414 31.3858 12.3649C31.6565 10.7909 31.8314 9.19996 32.1953 7.64266C32.0053 7.33679 31.6172 7.41701 31.317 7.42819C31.052 7.79 31.0075 8.25254 30.8765 8.66844C30.4496 8.40175 29.9294 8.3178 29.4367 8.35139C29.0548 8.59754 28.4037 9.30813 28.4337 8.40361C27.8515 8.49496 27.2532 8.47074 26.673 8.38493C26.6559 8.5155 26.6228 8.77847 26.6057 8.909L26.2554 8.93886C25.5727 8.10705 24.2876 8.18163 23.4187 8.68707C23.0248 8.89782 22.3385 9.03771 22.8923 9.81916C23.325 9.74085 23.7618 9.61214 24.2054 9.71285C23.7189 9.99823 23.2862 10.36 22.928 10.7927C22.6408 10.3171 22.6667 11.1545 22.5342 11.3541C21.9882 11.397 21.3723 11.645 20.8987 11.2813C20.4831 10.6099 20.5463 9.6905 20.9546 9.03212C21.0535 8.65353 21.5048 8.89223 21.7863 8.82697C22.1429 8.82883 22.6946 9.26336 22.8307 8.74115C23.0585 8.4241 23.1366 8.05856 23.0662 7.64266C22.3385 7.32561 21.4453 7.28457 20.7533 7.70233C20.4924 7.99889 20.2347 8.29731 19.9552 8.57704C19.9138 8.50619 19.83 8.36071 19.7891 8.28794C19.7016 8.12382 19.6064 7.96716 19.5019 7.81609C17.6014 7.73406 15.701 7.8534 13.8042 7.75828C13.4367 7.57553 13.7648 7.1764 13.7949 6.88916C15.5612 6.76609 17.3385 6.95075 19.1085 6.81644C19.5842 6.60942 18.9947 6.10399 18.916 5.77762C17.3701 5.69926 15.8242 5.76644 14.2819 5.72354C14.388 5.31695 14.5877 4.92905 14.9159 4.65671C16.0255 4.53923 17.1465 4.66603 18.2634 4.60263C18.1179 3.94431 17.426 3.40528 16.7376 3.49482C14.4646 3.85104 16.8463 3.09009 16.38 2.4504C17.7898 1.95801 18.8415 0.605859 20.4029 0.419334Z" fill="#F8990D"/>
<path d="M29.2337 10.3973C29.2317 9.89747 29.506 9.52447 30.0132 9.81916C30.2932 10.1343 30.3734 10.5428 30.3785 10.9531C30.4401 11.8987 28.4222 11.4548 29.2337 10.3973Z" fill="#F8990D"/>
<path d="M24.4178 11.7396C23.9908 11.5643 23.5711 11.0663 24.2573 10.8984C24.3355 11.1726 24.3748 11.458 24.4178 11.7396Z" fill="#F8990D"/>
<path opacity="0.98" d="M1.2506 10.2094C1.44313 9.6312 0.814305 8.43758 1.631 8.31445C1.54715 8.9542 1.37222 9.57712 1.2506 10.2094Z" fill="#0C457E"/>
<path opacity="0.98" d="M19.7892 8.28809C19.8301 8.3608 19.9139 8.50629 19.9548 8.57714C19.4103 9.71668 19.2199 11.2087 20.1416 12.2158C20.6897 12.5515 21.3015 12.6877 21.9541 12.6448C21.3517 13.3144 20.3036 12.8985 19.7162 12.4117C19.3601 11.5743 19.0279 10.722 19.0056 9.7969C19.4626 9.41639 19.6153 8.83265 19.7892 8.28809Z" fill="#0C457E"/>
<path opacity="0.98" d="M21.3591 8.53711C21.8498 8.56692 22.3399 8.6341 22.8305 8.7404C22.6944 9.26261 22.1422 8.82802 21.7861 8.82616C21.68 8.75344 21.4652 8.60796 21.3591 8.53711Z" fill="#0C457E"/>
<path opacity="0.98" d="M22.8929 9.81959C22.3386 9.03814 23.0249 8.89825 23.4187 8.6875C23.4296 8.93742 23.4503 9.18735 23.4783 9.43727C24.0771 9.39809 25.166 8.91693 25.1494 9.84945C24.8285 9.83268 24.517 9.76923 24.2059 9.71328C23.7619 9.61257 23.3256 9.74128 22.8929 9.81959Z" fill="#0C457E"/>
<path opacity="0.98" d="M26.2547 8.93801L26.6056 8.9082C26.4431 9.78291 26.4674 10.8441 26.0591 11.5398C26.1 10.6707 26.2397 9.809 26.2547 8.93801Z" fill="#0C457E"/>
<path opacity="0.98" d="M9.12646 9.08203C9.20513 9.08389 9.3635 9.08762 9.44165 9.08948C9.32986 9.50911 9.19737 9.9791 9.52549 10.3428C9.67144 10.6692 11.0026 11.1485 10.4452 11.5308C9.96593 11.2567 9.53688 10.906 9.10059 10.5703C9.10214 10.0742 9.11146 9.57815 9.12646 9.08203Z" fill="#0C457E"/>
<path opacity="0.98" d="M17.2361 9.87304C17.3463 9.58771 17.4861 9.31729 17.6294 9.04688C17.6672 9.71451 17.4602 10.358 17.335 11.0051L17.1279 10.9623C17.1393 10.5967 17.1895 10.2349 17.2361 9.87304Z" fill="#0C457E"/>
<path opacity="0.98" d="M6.62378 9.4069C6.90533 9.3789 7.46686 9.32482 7.74841 9.29688C7.99476 9.49644 8.11587 9.95525 7.64024 9.83212C7.63662 9.28756 6.97468 9.51321 6.62378 9.4069Z" fill="#0C457E"/>
<path opacity="0.98" d="M15.4211 9.28212C15.8015 9.14037 16.4505 9.50591 16.0572 9.90505C15.6302 10.3228 15.477 9.60663 15.4211 9.28212Z" fill="#0C457E"/>
<path opacity="0.98" d="M30.0133 9.81812C29.4631 9.36677 30.3078 9.34068 30.5148 9.69691C30.5241 10.014 30.5391 10.6443 30.5469 10.9595L30.3787 10.9521C30.373 10.5418 30.2933 10.1333 30.0133 9.81812Z" fill="#0C457E"/>
<path opacity="0.98" d="M4.18237 10.7285C4.22895 10.3256 4.32781 9.9247 4.60211 9.61133C4.61712 10.2753 4.39716 10.9132 4.2983 11.5622C4.25897 11.2843 4.21964 11.0064 4.18237 10.7285Z" fill="#0C457E"/>
<path opacity="0.98" d="M27.8049 10.8211C28.1035 10.3586 27.3815 9.41116 28.2805 9.66295C28.0663 10.6029 27.8422 11.9308 28.855 12.468C29.3099 12.8316 29.8192 12.3821 30.3114 12.371C30.5784 12.4605 30.8357 12.5743 31.1043 12.6694C30.6809 13.0853 29.8715 12.6134 29.4202 12.8335C28.2283 13.186 27.5736 11.7779 27.8049 10.8211Z" fill="#0C457E"/>
<path opacity="0.98" d="M2.44436 9.77148C2.74816 10.6704 2.6493 11.657 2.80974 12.5858C2.89566 12.6175 3.06904 12.6828 3.15443 12.7145C2.94948 12.8954 2.64206 12.8115 2.3957 12.832C2.35482 12.321 2.33618 11.8081 2.33618 11.2971C2.37137 10.788 2.40865 10.2788 2.44436 9.77148Z" fill="#0C457E"/>
<path opacity="0.98" d="M0.724609 12.8257C0.959576 11.9621 0.763946 10.9942 1.25044 10.209C1.46678 10.8916 0.407874 12.6317 1.72245 12.5646C1.67225 12.613 1.57339 12.71 1.52474 12.7585L0.724609 12.8257Z" fill="#0C457E"/>
<path opacity="0.98" d="M11.6744 10.5987C11.7081 10.3749 11.8349 10.2313 12.0533 10.166C11.9767 10.8486 11.7997 11.5238 11.9172 12.2175C12.1687 12.6092 12.607 12.6819 13.0418 12.6969C12.4093 13.1762 11.7489 12.7491 11.6035 12.0889C11.6579 11.5946 11.6485 11.0948 11.6744 10.5987Z" fill="#0C457E"/>
<path opacity="0.98" d="M13.5578 11.5431C13.623 11.1515 13.3135 9.64638 13.8005 10.4334C13.4051 12.0224 15.1378 13.0557 16.5549 12.6547C15.5684 13.1583 14.3807 12.8281 13.6364 12.0523C13.6157 11.9255 13.5764 11.6699 13.5578 11.5431Z" fill="#0C457E"/>
<path opacity="0.98" d="M22.5346 11.3549C22.6671 11.1553 22.6407 10.3179 22.9279 10.7935C22.9409 11.3325 22.7882 11.933 23.1427 12.39C23.4315 12.5485 23.7395 12.6678 24.0433 12.8021C23.4838 13.1005 22.8141 13.0073 22.4709 12.4385C22.4989 12.0785 22.516 11.7167 22.5346 11.3549Z" fill="#0C457E"/>
<path opacity="0.98" d="M5.33643 12.3819C5.39646 11.8243 5.43528 11.2386 5.69095 10.7295C5.71889 11.054 5.77117 11.7011 5.79704 12.0238C6.09205 12.5572 6.63651 12.7381 7.2203 12.6523C6.68309 13.1391 5.90521 12.5758 5.33643 12.3819Z" fill="#0C457E"/>
<path opacity="0.98" d="M14.8408 10.7812C15.3258 10.8148 16.2936 10.8801 16.7785 10.9118C16.1854 11.0125 15.0442 10.6004 15.2233 11.5254C14.9863 11.3594 14.9288 11.0386 14.8408 10.7812Z" fill="#0C457E"/>
<path opacity="0.98" d="M24.2577 10.8965C24.1609 10.5962 24.7685 10.8462 24.9517 10.7846C25.0521 11.2248 24.7426 11.5101 24.4181 11.7377C24.3752 11.456 24.3358 11.1707 24.2577 10.8965Z" fill="#0C457E"/>
<path opacity="0.98" d="M16.969 11.7329C17.0714 11.5911 17.1781 11.4494 17.2842 11.3076C17.2691 11.6713 17.236 12.035 17.2117 12.3987C17.441 12.5013 17.6739 12.5945 17.9088 12.6934C17.2619 13.0384 16.9208 12.9507 16.8831 12.4304C16.9095 12.1991 16.9395 11.966 16.969 11.7329Z" fill="#0C457E"/>
<path opacity="0.98" d="M25.891 11.8633C26.0235 12.3053 26.3594 12.5775 26.8034 12.6858C26.5778 12.945 26.1824 12.8088 25.8874 12.8107C25.8801 12.4937 25.8801 12.1785 25.891 11.8633Z" fill="#0C457E"/>
<path opacity="0.98" d="M8.78138 12.0811L8.86936 12.193C9.26115 12.8513 10.1431 12.6313 10.777 12.6611C9.84287 13.1386 8.65096 12.6909 7.64743 12.7861C7.61793 12.6947 7.55428 12.5119 7.52271 12.4224C7.94968 12.3515 8.88955 13.0957 8.78138 12.0811Z" fill="#0C457E"/>
<path opacity="0.98" d="M24.3398 12.8069C24.4532 12.3313 24.9516 12.2231 25.3242 12.4917C25.3972 13.0605 24.6716 12.7378 24.3398 12.8069Z" fill="#0C457E"/>
<path opacity="0.98" d="M4.98466 12.6751C4.66947 13.0742 3.7798 12.9903 4.14726 12.4531C4.42674 12.5259 4.74762 12.4755 4.98466 12.6751Z" fill="#0C457E"/>
<path d="M1.86794 7.44761C2.33788 7.39353 2.81195 7.38607 3.28913 7.41966C3.34917 8.30928 3.30622 9.20076 3.36211 10.0922C4.07633 9.37046 4.00905 8.28501 4.46035 7.43643C5.01464 7.37676 5.5384 7.42525 6.10719 7.42525C6.02697 8.49948 5.70091 9.54394 5.74749 10.6275C6.30489 10.2097 6.92233 9.85168 7.64017 9.83113C8.11579 9.9542 7.99469 9.49545 7.74833 9.29588C7.46679 9.32383 6.90577 9.37791 6.62371 9.40591C6.53986 9.41337 6.37217 9.42641 6.28833 9.432C6.12789 8.72145 6.80847 7.97913 7.60135 8.34841C8.37146 7.97355 8.72599 8.658 9.12657 9.08141C9.11208 9.57748 9.10276 10.0736 9.10069 10.5697C8.99459 11.0732 8.86935 11.5731 8.78188 12.0804C8.89005 13.0949 7.95018 12.3508 7.52269 12.4217C7.44816 12.4776 7.29703 12.5932 7.22095 12.6511C6.63716 12.7369 6.09218 12.556 5.79769 12.0225C5.77182 11.6999 5.71954 11.0528 5.6916 10.7282C5.43593 11.2374 5.39659 11.823 5.33708 12.3806C5.24754 12.4534 5.07209 12.5989 4.98462 12.6735C4.74759 12.4739 4.42671 12.5242 4.14723 12.4515C4.2052 12.155 4.25177 11.8584 4.29835 11.5619C4.3972 10.9129 4.61717 10.275 4.60216 9.61107C4.32786 9.92439 4.229 10.3254 4.18242 10.7282C3.91796 11.422 3.79271 12.2426 3.15509 12.7126C3.06918 12.6809 2.8958 12.6156 2.80989 12.5839C2.64945 11.6551 2.7483 10.6685 2.4445 9.76959C2.40879 10.2769 2.37152 10.7861 2.33633 11.2952C2.19245 11.7409 2.12 12.2594 1.72252 12.5634C0.407945 12.6306 1.46685 10.8905 1.25051 10.2079C1.37214 9.57562 1.54706 8.95269 1.63142 8.313C1.70388 8.02204 1.78048 7.73299 1.86794 7.44761ZM6.84935 10.9669C6.8271 11.2467 6.84418 11.7111 7.2282 11.698C7.61067 11.7111 7.62568 11.2467 7.60704 10.9669C7.35293 10.9539 7.1014 10.9539 6.84935 10.9669Z" fill="#F5EEEC"/>
<path d="M20.7533 7.70194C21.4453 7.28418 22.3391 7.32517 23.0662 7.64227C23.1371 8.05817 23.059 8.42372 22.8313 8.74077C22.3406 8.63446 21.85 8.56728 21.3599 8.53747C21.466 8.60833 21.6803 8.75381 21.7869 8.82652C21.5053 8.89184 21.054 8.65309 20.9552 9.03168C20.5463 9.69005 20.4832 10.6095 20.8993 11.2809C21.3728 11.6446 21.9882 11.3966 22.5347 11.3537C22.5161 11.7155 22.499 12.0773 22.4711 12.4373C22.292 12.4951 22.1207 12.5641 21.9546 12.6443C21.3019 12.6872 20.6902 12.551 20.1416 12.2153C19.2203 11.2082 19.4108 9.71619 19.9553 8.57665C20.2353 8.29686 20.4925 7.99844 20.7533 7.70194Z" fill="#F5EEEC"/>
<path d="M31.3168 7.42789C31.6175 7.41666 32.0052 7.33649 32.1956 7.64236C31.8318 9.19967 31.6563 10.7906 31.3862 12.3646C31.3153 12.4411 31.1755 12.5921 31.1046 12.6686C30.836 12.5735 30.5783 12.4598 30.3117 12.3702C29.8195 12.3814 29.3103 12.8309 28.8554 12.4672C27.8425 11.9301 28.0661 10.6022 28.2809 9.6622C27.3819 9.41041 28.1034 10.3578 27.8053 10.8204C27.7773 10.6581 27.7214 10.3336 27.695 10.1695C27.1205 10.9043 27.5123 12.0569 26.8038 12.6854C26.3597 12.5772 26.0239 12.305 25.8914 11.8629C25.8805 12.1781 25.8805 12.4933 25.8877 12.8104C25.6957 12.7078 25.5151 12.5884 25.3246 12.4915C24.9515 12.2229 24.4536 12.331 24.3397 12.8067C24.2652 12.8048 24.1177 12.8029 24.0432 12.8011C23.7394 12.6668 23.4315 12.5474 23.1427 12.3889C22.7881 11.932 22.9413 11.3314 22.9279 10.7924C23.286 10.3597 23.7187 9.99788 24.2057 9.71256C24.5173 9.7685 24.8283 9.8319 25.1492 9.84867C25.1663 8.91615 24.0768 9.39737 23.478 9.4365C23.4501 9.18662 23.4299 8.9367 23.4185 8.68677C24.2875 8.18134 25.5726 8.10676 26.2552 8.93856C26.2402 9.80954 26.1004 10.6712 26.0596 11.5403C26.4679 10.8446 26.4436 9.78341 26.6061 8.9087C26.6226 8.77817 26.6563 8.51521 26.6728 8.38463C27.253 8.47044 27.8518 8.49466 28.4336 8.40331C28.4041 9.30783 29.0546 8.59724 29.4371 8.35104C29.9293 8.3175 30.4499 8.4014 30.8769 8.66814C31.0073 8.25224 31.0524 7.78971 31.3168 7.42789ZM30.0131 9.81886C29.5059 9.52417 29.2321 9.89717 29.2337 10.397C28.4227 11.4545 30.4406 11.8984 30.379 10.9528L30.5467 10.9603C30.5395 10.6451 30.5245 10.0147 30.5151 9.69765C30.3081 9.34142 29.463 9.36751 30.0131 9.81886ZM24.258 10.8969C23.5717 11.0647 23.9909 11.5627 24.4184 11.738C24.7429 11.5105 25.0524 11.2251 24.9515 10.785C24.7688 10.8465 24.1607 10.5966 24.258 10.8969Z" fill="#F5EEEC"/>
<path d="M12.4856 7.80395C13.8136 7.2687 14.3244 9.18968 13.3923 9.84619C13.2728 10.2621 12.4949 11.7523 13.5579 11.5434C13.5766 11.6702 13.6159 11.9257 13.6366 12.0526C13.5693 12.3715 13.2935 12.5337 13.0414 12.696C12.6072 12.6811 12.1688 12.6083 11.9168 12.2167C11.7993 11.5228 11.9768 10.8477 12.0529 10.1651C12.1838 9.37621 12.3065 8.58358 12.4856 7.80395Z" fill="#F5EEEC"/>
<path d="M9.4418 9.09011C9.74767 8.83651 10.0033 8.45415 10.4101 8.36647C11.085 8.39634 12.5564 7.84054 11.8738 9.24118C11.6186 9.76525 10.2217 9.06216 10.6451 9.79139C10.9789 10.0711 11.3407 10.3155 11.6745 10.599C11.6481 11.095 11.6574 11.5949 11.6036 12.0891C11.3464 12.3074 11.0591 12.4826 10.7776 12.6617C10.1431 12.6319 9.26117 12.8519 8.86938 12.1935C8.96824 11.9828 9.06709 11.7702 9.16387 11.5576C9.59499 11.5744 10.037 11.7683 10.4453 11.5315C11.0032 11.1491 9.67159 10.6698 9.52616 10.3435C9.19752 9.97978 9.33 9.50979 9.4418 9.09011Z" fill="#F5EEEC"/>
<path d="M14.5278 8.756C15.1002 8.22629 16.0292 8.17598 16.6875 8.59002C17.0664 8.89957 17.0866 9.43673 17.2356 9.87313C17.1891 10.2349 17.1388 10.5968 17.1275 10.9623C17.04 10.9493 16.8666 10.925 16.7792 10.912C16.2942 10.8803 15.3259 10.815 14.8409 10.7814C14.9289 11.0388 14.9869 11.3596 15.2234 11.5256C15.7492 11.9377 16.3703 11.5069 16.9168 11.3763C16.9298 11.4659 16.9562 11.645 16.9691 11.7326C16.9391 11.9657 16.9096 12.1988 16.8832 12.4301C16.8014 12.4879 16.6373 12.5998 16.5551 12.6558C15.1375 13.0568 13.4052 12.0235 13.8007 10.4345C14.0035 9.86009 14.1681 9.25766 14.5278 8.756ZM15.4211 9.28193C15.477 9.60643 15.6302 10.3226 16.0572 9.90485C16.4505 9.50572 15.8015 9.14017 15.4211 9.28193Z" fill="#F5EEEC"/>
<path d="M17.6293 9.04665C17.8477 8.64752 17.8643 7.82131 18.6815 8.52817C19.0676 8.66243 19.4144 8.34538 19.7891 8.28756C19.6157 8.83218 19.463 9.41593 19.006 9.79638C18.1013 10.4752 18.9015 12.2415 17.9093 12.6928C17.6744 12.5939 17.4409 12.5007 17.2117 12.3981C17.236 12.0345 17.2696 11.6708 17.2846 11.3071C17.2976 11.2306 17.3219 11.0795 17.3348 11.005C17.4596 10.3578 17.6666 9.71434 17.6293 9.04665Z" fill="#F5EEEC"/>
</svg>
