<svg width="74" height="20" viewBox="0 0 74 20" fill="none" xmlns="http://www.w3.org/2000/svg">
<path opacity="0.98" d="M0.33542 0.0277831C2.76715 0.0330299 5.2015 -0.0457462 7.63328 0.0409C9.94941 0.539863 10.3985 3.06091 10.8476 4.99628C11.617 7.33084 12.4941 9.66279 12.9589 12.0814C13.0692 12.084 13.2898 12.0892 13.4027 12.0919C14.1485 9.61819 14.7446 7.10239 15.6979 4.69691C16.118 2.87968 16.6065 0.584534 18.6968 0.0330301C21.2257 0.0172895 23.7573 -0.0273824 26.2888 0.0356529C26.3019 6.67957 26.3046 13.3235 26.2861 19.9675C24.1932 19.9648 22.0976 20.0252 20.002 19.9569C19.9626 16.0231 20.0283 12.0866 19.9836 8.15016L19.2588 8.19221C17.8906 12.0735 16.9321 16.0887 15.472 19.9412C13.9305 19.9701 12.3838 20.0463 10.8423 19.9491C9.86276 16.3198 8.53924 12.7904 7.45467 9.18226C7.39425 8.70691 7.26031 8.00572 6.61436 8.14229C6.56445 12.0814 6.63535 16.0231 6.59068 19.9649C4.5135 19.9386 2.42839 20.0777 0.353799 19.9333C0.282894 19.8624 0.14109 19.7258 0.0728148 19.6549C0.125334 13.1161 -0.255443 6.54826 0.33542 0.0277831Z" fill="#409F38"/>
<path opacity="0.98" d="M29.1958 0.0242295C31.2888 0.0242295 33.3843 -0.03356 35.4799 0.0347222C35.5377 3.94758 35.4142 7.86298 35.5324 11.7758C35.8056 12.3772 36.2363 11.8205 36.4358 11.487C37.4758 9.00009 38.6994 6.59987 39.9521 4.21801C40.7058 2.81046 41.21 1.19545 42.376 0.0609575C44.8024 -0.00732473 47.2315 -0.0178187 49.6607 0.0320994C49.6738 6.67602 49.6764 13.3226 49.658 19.9666C47.5624 19.9639 45.4668 20.0243 43.3738 19.956C43.3345 16.0222 43.4001 12.0857 43.3555 8.14923C42.2237 7.85773 42.1659 9.30208 41.7614 9.9849C40.4983 12.7343 39.3219 15.5259 37.9458 18.2202C37.5308 18.8373 37.2472 19.6777 36.4595 19.8957C34.0408 20.0295 31.6143 19.998 29.1931 19.9587C29.1774 13.3147 29.1774 6.66815 29.1958 0.0242295Z" fill="#409F38"/>
<path opacity="0.98" d="M52.833 8.95333C59.0436 8.92972 65.2568 8.95595 71.4698 8.94021C71.9194 8.90873 72.337 9.08465 72.7487 9.24744C72.1584 10.9307 70.916 12.3147 69.2829 13.0473C66.0709 14.3263 62.489 13.3704 59.1302 13.6881C59.0725 15.7785 59.1802 17.8741 59.104 19.9644C57.011 19.9644 54.918 20.0248 52.8277 19.9565C52.8172 16.2906 52.7988 12.622 52.833 8.95333Z" fill="#409F38"/>
<path d="M52.0215 0.0283854C57.2658 0.0178916 62.51 -0.00571894 67.7569 0.0388795C68.76 0.868759 70.5166 0.915981 71.4122 2.17122C72.9119 3.59196 73.4344 5.84775 73.2741 7.84352C73.2005 7.91443 73.0533 8.05099 72.9804 8.11928C68.4554 8.11141 63.9071 8.39241 59.4034 7.85664C57.1817 7.01897 54.8498 6.13399 53.3818 4.18281C52.7936 2.85667 52.0163 1.52265 52.0215 0.0283854Z" fill="#088BCE"/>
</svg>
