<svg width="36" height="34" viewBox="0 0 36 34" fill="none" xmlns="http://www.w3.org/2000/svg">
<path fill-rule="evenodd" clip-rule="evenodd" d="M10.604 20.5577H15.2351C15.6943 20.5577 16.0692 20.9327 16.0692 21.3918V23.7419C16.0692 24.2011 15.6943 24.576 15.2351 24.576H10.604C10.1453 24.576 9.76988 24.201 9.76988 23.7419V21.3918C9.76988 20.9326 10.1453 20.5577 10.604 20.5577ZM28.4967 6.42326L3.00186 13.2549L5.47223 22.4769V14.5512L5.47318 14.49L5.47413 14.4599V14.4594L5.47555 14.4297V14.4293L5.47958 14.3693V14.3683L5.48195 14.3391V14.3382C5.53318 13.7666 5.78742 13.2515 6.1721 12.8675L6.19226 12.8473L6.21289 12.8277L6.234 12.808V12.8075L6.25511 12.7883L6.27622 12.7695V12.7691L6.2978 12.7503L6.31986 12.7321V12.7316L6.34191 12.7133L6.36397 12.6955L6.38626 12.6778L6.40903 12.6604V12.66L6.4318 12.6431V12.6427L6.45457 12.6258L6.50105 12.5931V12.5926L6.54849 12.5608L6.57268 12.5452L6.62153 12.5146C6.64572 12.4999 6.67086 12.4854 6.69601 12.4712L6.72115 12.4574V12.457L6.74628 12.4437L6.7719 12.4304V12.4299L6.82408 12.4043L6.85017 12.392L6.87625 12.3801L6.90282 12.3683L6.92938 12.3569V12.3564L6.95642 12.3455L7.01049 12.3244V12.3239C7.27351 12.2238 7.55787 12.1688 7.85601 12.1688H30.0358L28.4968 6.42389L28.4967 6.42326ZM2.14942 10.075L27.6442 3.24331L27.3758 2.24127C27.2985 1.95311 27.0053 1.78496 26.7171 1.86204L2.25993 8.415C1.986 8.48852 1.78986 8.79921 1.88117 9.07364L2.14917 10.0747L2.14942 10.075ZM31.9459 12.1682H33.1756C34.4841 12.1682 35.5592 13.2428 35.5592 14.5513V31.6165C35.5592 32.9294 34.4886 34 33.1756 34H7.85566C6.54816 34 5.47211 32.9244 5.47211 31.6165V28.8013C5.26316 28.5397 5.10995 28.251 5.02172 27.9228L0.0995594 9.55044C-0.304814 8.33802 0.575553 6.95749 1.78391 6.63327L26.2417 0.0803006C27.5044 -0.257663 28.8202 0.502932 29.1584 1.76514L31.9458 12.168L31.9459 12.1682ZM7.85541 14.0153C7.82577 14.0153 7.79636 14.0177 7.76814 14.0227L7.74205 14.0276V14.0281L7.71003 14.0359L7.69082 14.0419L7.67849 14.0459L7.67256 14.0483L7.66022 14.0528V14.0532L7.64837 14.058L7.63651 14.0634L7.63058 14.0663L7.61872 14.0717L7.61279 14.0748L7.60141 14.0808L7.58504 14.09L7.57911 14.0931V14.0936L7.5682 14.0997V14.1002L7.56322 14.1033L7.55231 14.1104L7.54733 14.114L7.54188 14.118L7.5369 14.1215L7.53144 14.1256L7.52646 14.1291L7.51152 14.1412L7.50701 14.1453V14.1457L7.50203 14.1493V14.1498L7.49753 14.1538L7.49255 14.1583L7.48804 14.1623L7.47903 14.1714C7.39222 14.2577 7.33459 14.3734 7.32274 14.5005V14.5015L7.32226 14.5079V14.5084L7.32179 14.5143V14.5153L7.32131 14.5212V14.5285L7.32084 14.5354V31.6145C7.32084 31.9127 7.55919 32.151 7.85684 32.151H33.1768C33.4699 32.151 33.7128 31.9077 33.7128 31.6145V14.5494C33.7128 14.2522 33.4744 14.0134 33.1768 14.0134H7.85684L7.85541 14.0153ZM17.3707 28.4321H31.5446V30.2239H17.3707V28.4321ZM20.4119 25.2281H31.5446V27.0204H20.4119V25.2281Z" fill="#333333"/>
</svg>
