<svg width="30" height="34" viewBox="0 0 30 34" fill="none" xmlns="http://www.w3.org/2000/svg">
<path d="M29.1428 25.5V8.49999C29.1428 7.5337 28.759 6.60731 28.076 5.92398C27.3927 5.24094 26.4663 4.85714 25.5 4.85714H24.2857V3.64285C24.2857 2.67656 23.9019 1.75017 23.2189 1.06684C22.5356 0.383797 21.6091 0 20.6428 0H3.64285C2.67656 0 1.75017 0.383797 1.06684 1.06684C0.383797 1.75015 0 2.67656 0 3.64285V25.5C0 26.4663 0.383797 27.3927 1.06684 28.076C1.75015 28.759 2.67656 29.1428 3.64285 29.1428H4.85714V30.3571C4.85714 31.3234 5.24094 32.2498 5.92398 32.9331C6.60729 33.6162 7.5337 34 8.49999 34H20.6428C20.9657 34.0019 21.2757 33.875 21.5051 33.6479L28.7908 26.3622C29.0179 26.1329 29.1448 25.8228 29.1429 25.5L29.1428 25.5ZM4.85714 8.49999V26.7143H3.64285C3.32085 26.7143 3.01186 26.5863 2.78418 26.3587C2.55651 26.131 2.42857 25.822 2.42857 25.5V3.64285C2.42857 3.32085 2.55651 3.01186 2.78418 2.78418C3.01186 2.55651 3.32085 2.42857 3.64285 2.42857H20.6428C20.9648 2.42857 21.2738 2.55651 21.5015 2.78418C21.7292 3.01186 21.8571 3.32085 21.8571 3.64285V4.85714H8.49999C7.5337 4.85714 6.60731 5.24094 5.92398 5.92398C5.24094 6.60729 4.85714 7.5337 4.85714 8.49999ZM21.8571 29.8589V27.9283C21.8571 27.6063 21.9851 27.2973 22.2127 27.0696C22.4404 26.8419 22.7494 26.714 23.0714 26.714H25.0021L21.8571 29.8589ZM26.7143 24.2854H23.0714C22.1051 24.2854 21.1787 24.6692 20.4954 25.3523C19.8124 26.0356 19.4286 26.962 19.4286 27.9283V31.5711H8.49999C8.17799 31.5711 7.869 31.4432 7.64132 31.2155C7.41365 30.9878 7.28571 30.6788 7.28571 30.3568V8.49972C7.28571 8.17772 7.41365 7.86872 7.64132 7.64104C7.869 7.41337 8.17799 7.28543 8.49999 7.28543H25.5C25.822 7.28543 26.131 7.41337 26.3587 7.64104C26.5863 7.86872 26.7143 8.17772 26.7143 8.49972V24.2854Z" fill="#333333"/>
<path d="M9.71436 10.9287H24.2858V13.3573H9.71436V10.9287Z" fill="#333333"/>
<path d="M9.71436 15.7856H24.2858V18.2142H9.71436V15.7856Z" fill="#333333"/>
<path d="M9.71436 20.6431H24.2858V23.0716H9.71436V20.6431Z" fill="#333333"/>
</svg>
