<svg width="49" height="34" viewBox="0 0 49 34" fill="none" xmlns="http://www.w3.org/2000/svg">
<path d="M47.1419 8.93152H43.742V5.53159C43.742 4.92275 43.2344 4.46576 42.6762 4.46576H39.2762V1.06583C39.2762 0.456996 38.7686 0 38.2104 0H1.06583C0.456997 0 0 0.507596 0 1.06583V24.0027C0 24.6115 0.507597 25.0685 1.06583 25.0685H4.46576V28.4684C4.46576 29.0772 4.97336 29.5342 5.53159 29.5342H8.93151V32.9342C8.93151 33.543 9.43911 34 9.99735 34H47.0921C47.7009 34 48.1579 33.4924 48.1579 32.9342L48.1576 9.99734C48.2082 9.38851 47.7006 8.93188 47.1424 8.93188L47.1419 8.93152ZM37.0944 6.08987C35.166 5.68387 33.5929 4.11081 33.1869 2.18241H37.0944V6.08987ZM30.9544 2.18241C31.411 5.32852 33.9483 7.81512 37.0947 8.32275V16.8478C33.9486 17.3044 31.462 19.791 30.9544 22.9881L25.5751 22.9878C28.3662 20.7043 30.193 16.8984 30.193 12.6357C30.193 8.37323 28.3662 4.51633 25.5751 2.28372H30.9544V2.18241ZM37.0944 18.9791V22.8865H33.1869C33.5929 20.9581 35.166 19.4357 37.0944 18.9791ZM11.2651 12.5343C11.2651 6.80004 15.0203 2.18231 19.6378 2.18231C24.2557 2.18231 28.0106 6.85087 28.0106 12.5343C28.0106 18.2178 24.2554 22.8864 19.6378 22.8864C15.0203 22.8867 11.2651 18.2688 11.2651 12.5343ZM9.08285 12.5343C9.08285 16.8479 10.9097 20.6537 13.7007 22.8864L8.32185 22.8867C7.81425 19.7402 5.32797 17.254 2.1815 16.7974V8.272C5.32797 7.81537 7.81421 5.32878 8.32185 2.18267H13.7007C10.9097 4.41555 9.08285 8.22144 9.08285 12.5347V12.5343ZM6.08897 2.18231C5.68296 4.11072 4.10991 5.68382 2.1815 6.08979V2.18231H6.08897ZM2.1815 18.979C4.10991 19.385 5.68301 20.958 6.08897 22.8864H2.1815V18.979ZM6.64717 25.0683H38.2107C38.8195 25.0683 39.2765 24.5607 39.2765 24.0025V6.64762H41.5599V27.4024H6.64726L6.64717 25.0683ZM46.0254 31.8174H11.1127V29.534H42.6762C43.2851 29.534 43.7421 29.0264 43.7421 28.4681L43.7417 11.1133H46.0252L46.0254 31.8174Z" fill="#333333"/>
<path d="M20.7547 6.24177H16.9998C16.8476 6.24177 16.6954 6.39398 16.6954 6.54619V12.0267H15.4267C15.2745 12.0267 15.1223 12.1789 15.1223 12.3311V13.7519C15.1223 13.9042 15.2745 14.0564 15.4267 14.0564H16.6954V15.2234H15.4267C15.2745 15.2234 15.1223 15.3756 15.1223 15.5278V16.9487C15.1223 17.1009 15.2745 17.2531 15.4267 17.2531H16.6954V18.7245C16.6954 18.8768 16.8476 19.029 16.9998 19.029H18.4206C18.5729 19.029 18.7251 18.8768 18.7251 18.7245V17.2531H21.6683C21.8205 17.2531 21.9727 17.1009 21.9727 16.9487V15.5278C21.9727 15.3756 21.8205 15.2234 21.6683 15.2234H18.7251V14.0564H20.8564C23.0382 14.0564 24.865 12.2295 24.7638 9.99666C24.6622 7.86536 22.886 6.2417 20.7548 6.2417L20.7547 6.24177ZM20.8563 12.0267H18.725V8.27149H20.8563C21.8711 8.27149 22.7338 9.13411 22.7338 10.149C22.7338 11.1641 21.8712 12.0268 20.8563 12.0268V12.0267Z" fill="#333333"/>
</svg>
