<svg width="25" height="24" viewBox="0 0 25 24" fill="none" xmlns="http://www.w3.org/2000/svg">
<path d="M23.7973 19.4072C24.0624 19.0527 24.0751 18.5696 23.8287 18.2019C22.3434 15.9701 20.0784 14.3734 17.4775 13.724L16.9555 13.5936H16.9558C16.5994 13.5052 16.223 13.61 15.9642 13.8703L14.5707 15.2584C14.3017 15.5172 13.9424 15.6621 13.5689 15.6621C13.195 15.6621 12.8361 15.5172 12.5667 15.2584L8.74149 11.4332C8.47647 11.1671 8.32759 10.8067 8.32759 10.431C8.32759 10.0553 8.47648 9.6953 8.74149 9.42919L10.1296 8.0357C10.388 7.77797 10.4929 7.40375 10.4062 7.04918L10.2759 6.52716V6.52753C9.62649 3.92656 8.02982 1.66155 5.79799 0.176356C5.43032 -0.0697244 4.94725 -0.0573488 4.59265 0.207663L4.07063 0.598992C1.51663 2.52581 0.0106606 5.53598 3.68029e-05 8.73505C-0.00724376 11.4355 1.06596 14.0269 2.98001 15.9316L8.06844 21.02C9.97308 22.934 12.5645 24.0072 15.2649 24C18.4659 23.9909 21.4782 22.4849 23.406 19.9294L23.7973 19.4072ZM15.2648 21.9121C13.1109 21.9241 11.0428 21.0705 9.52408 19.543L4.43566 14.4546H4.43602C2.90852 12.9362 2.05489 10.8678 2.06654 8.71419C2.07091 6.21331 3.22565 3.85371 5.19795 2.31605C6.68286 3.49297 7.74067 5.12456 8.20915 6.9607L7.23316 7.9312C6.57608 8.589 6.20693 9.4805 6.20693 10.4103C6.20693 11.34 6.57606 12.2315 7.23316 12.889L11.0584 16.7142V16.7146C11.7256 17.3531 12.6138 17.7095 13.5374 17.7095C14.4611 17.7095 15.3489 17.3531 16.0161 16.7146L16.987 15.7437C18.8392 16.2104 20.4838 17.2788 21.663 18.7812C20.1253 20.7531 17.7657 21.9082 15.2648 21.9122L15.2648 21.9121Z" fill="#333333"/>
</svg>
