<svg width="17" height="16" viewBox="0 0 17 16" fill="none" xmlns="http://www.w3.org/2000/svg">
<path d="M15.8649 12.9382C16.0416 12.7018 16.0501 12.3797 15.8858 12.1346C14.8956 10.6467 13.3856 9.58228 11.6517 9.14931L11.3036 9.06243H11.3039C11.0663 9.00346 10.8154 9.07335 10.6428 9.24688L9.71379 10.1723C9.53445 10.3448 9.29492 10.4414 9.04592 10.4414C8.79669 10.4414 8.5574 10.3448 8.3778 10.1723L5.82766 7.62212C5.65098 7.44471 5.55172 7.20445 5.55172 6.954C5.55172 6.70354 5.65099 6.46353 5.82766 6.28613L6.75305 5.35714C6.92535 5.18532 6.99524 4.93584 6.93749 4.69945L6.85061 4.35144V4.35168C6.41766 2.61771 5.35321 1.1077 3.86532 0.117571C3.62021 -0.0464829 3.29817 -0.0382326 3.06177 0.138442L2.71375 0.399328C1.01109 1.68388 0.00710707 3.69065 2.45352e-05 5.82337C-0.00482917 7.62364 0.710639 9.35128 1.98668 10.621L5.37896 14.0133C6.64872 15.2894 8.37636 16.0048 10.1766 16C12.3106 15.9939 14.3188 14.9899 15.604 13.2862L15.8649 12.9382ZM10.1766 14.6081C8.74061 14.6161 7.36188 14.047 6.34939 13.0287L2.9571 9.63639H2.95735C1.93901 8.62415 1.36993 7.24523 1.37769 5.80946C1.38061 4.14221 2.15043 2.56914 3.4653 1.54404C4.45524 2.32864 5.16045 3.41637 5.47276 4.64047L4.8221 5.28747C4.38406 5.726 4.13795 6.32033 4.13795 6.94018C4.13795 7.56 4.38404 8.15434 4.8221 8.59265L7.37225 11.1428V11.143C7.8171 11.5687 8.40922 11.8063 9.02496 11.8063C9.64071 11.8063 10.2326 11.5687 10.6774 11.143L11.3247 10.4958C12.5595 10.8069 13.6559 11.5192 14.442 12.5208C13.4169 13.8354 11.8438 14.6055 10.1766 14.6081L10.1766 14.6081Z" fill="#333333"/>
</svg>
