<svg width="300" height="139" viewBox="0 0 300 139" fill="none" xmlns="http://www.w3.org/2000/svg">
<path d="M216.525 51.7394C216.525 56.3141 215.677 60.3626 213.981 63.8851C212.284 67.4074 209.867 70.1243 206.731 72.0359C203.618 73.926 200.063 74.871 196.068 74.871C192.073 74.871 188.529 73.9582 185.436 72.1326C182.343 70.2853 179.927 67.6544 178.188 64.2393C176.469 60.8244 175.567 56.9048 175.481 52.4802V49.8385C175.481 45.2422 176.319 41.1937 177.994 37.6926C179.691 34.1703 182.107 31.4534 185.243 29.5418C188.4 27.6302 191.987 26.6746 196.003 26.6746C199.977 26.6746 203.521 27.6195 206.636 29.5096C209.75 31.3998 212.166 34.0953 213.884 37.5961C215.624 41.0755 216.504 45.0704 216.525 49.5808V51.7394ZM205.024 49.774C205.024 45.1133 204.24 41.5803 202.672 39.1747C201.126 36.7477 198.903 35.5342 196.003 35.5342C190.333 35.5342 187.337 39.7869 187.015 48.2921L186.983 51.7394C186.983 56.3355 187.745 59.8687 189.27 62.3387C190.795 64.8086 193.061 66.0434 196.068 66.0434C198.924 66.0434 201.126 64.83 202.672 62.403C204.22 59.976 205.003 56.4858 205.024 51.9326V49.774ZM246.552 61.7587C246.552 60.1048 245.96 58.8161 244.781 57.8926C243.62 56.9691 241.568 56.0134 238.626 55.0254C235.684 54.0373 233.278 53.0817 231.41 52.1581C225.331 49.1727 222.292 45.0704 222.292 39.8512C222.292 37.2524 223.045 34.965 224.548 32.9891C226.073 30.9915 228.22 29.4451 230.991 28.3498C233.762 27.2329 236.876 26.6746 240.333 26.6746C243.707 26.6746 246.723 27.276 249.387 28.4787C252.072 29.6814 254.154 31.3998 255.637 33.6334C257.119 35.8456 257.859 38.38 257.859 41.2366H246.583C246.583 39.325 245.993 37.8431 244.812 36.7908C243.653 35.7382 242.074 35.212 240.076 35.212C238.057 35.212 236.457 35.6631 235.276 36.5652C234.117 37.4458 233.535 38.5732 233.535 39.9479C233.535 41.1506 234.181 42.2461 235.469 43.2341C236.758 44.2005 239.024 45.21 242.267 46.2624C245.511 47.2933 248.173 48.4103 250.257 49.613C255.325 52.534 257.859 56.5611 257.859 61.6943C257.859 65.7966 256.313 69.0183 253.22 71.3594C250.127 73.7004 245.886 74.871 240.494 74.871C236.694 74.871 233.247 74.1945 230.154 72.8412C227.082 71.4668 224.762 69.5981 223.195 67.2356C221.649 64.8515 220.875 62.1131 220.875 59.0203H232.216C232.216 61.5333 232.859 63.391 234.148 64.5937C235.459 65.775 237.575 66.3657 240.494 66.3657C242.364 66.3657 243.834 65.9684 244.909 65.1737C246.004 64.3574 246.552 63.2193 246.552 61.7587ZM263.659 74.2266V27.3189H280.509C286.544 27.3189 291.13 28.4251 294.266 30.6373C297.423 32.8495 299 36.0604 299 40.27C299 42.697 298.443 44.7696 297.326 46.488C296.208 48.2061 294.565 49.4734 292.396 50.2895C294.845 50.9338 296.724 52.1367 298.035 53.8977C299.344 55.659 300 57.8069 300 60.3411C300 64.9375 298.538 68.3954 295.618 70.715C292.719 73.0132 288.412 74.1837 282.699 74.2266H263.659ZM274.967 54.2843V65.528H282.377C284.416 65.528 285.985 65.0663 287.08 64.1428C288.175 63.1976 288.724 61.8768 288.724 60.1801C288.724 56.2712 286.779 54.3058 282.893 54.2843H274.967ZM274.967 46.8746H280.864C283.332 46.8531 285.095 46.402 286.146 45.5214C287.198 44.6407 287.726 43.3413 287.726 41.6232C287.726 39.6473 287.157 38.2297 286.018 37.3706C284.878 36.4899 283.043 36.0497 280.509 36.0497H274.967V46.8746Z" fill="#B1B1B1"/>
<path d="M199.226 103.973C198.945 107.128 197.847 109.593 195.931 111.369C194.038 113.122 191.538 113.998 188.43 113.998C184.878 113.998 182.062 112.83 179.982 110.493C177.902 108.133 176.863 104.955 176.863 100.959C176.863 97.2201 177.902 94.112 179.982 91.6351C182.085 89.1346 184.983 87.8845 188.675 87.8845C191.316 87.8845 193.641 88.5973 195.65 90.0227C197.66 91.4481 198.782 93.4227 199.015 95.9465H195.721C195.347 94.3108 194.529 93.0372 193.267 92.1258C192.005 91.1912 190.451 90.7237 188.605 90.7237C185.824 90.7237 183.721 91.7052 182.296 93.6681C180.894 95.631 180.193 98.0496 180.193 100.924C180.193 104.102 180.94 106.602 182.436 108.425C183.931 110.248 185.976 111.159 188.57 111.159C190.696 111.159 192.391 110.551 193.652 109.336C194.914 108.098 195.674 106.31 195.931 103.973H199.226ZM223.647 88.4454L213.131 98.4702L224.067 113.402H219.861L210.818 100.714L206.681 104.639V113.402H203.386V88.4454H206.681V100.819L219.335 88.4454H223.647ZM245.166 88.4454V113.402H241.872V91.3196H232.653L232.162 105.375C232.069 107.993 231.531 110.072 230.55 111.615C229.593 113.157 228.201 113.928 226.379 113.928C225.632 113.928 224.836 113.765 223.995 113.437V110.633C224.37 110.867 224.966 110.984 225.783 110.984C226.461 110.984 226.999 110.832 227.395 110.528C227.816 110.201 228.179 109.477 228.482 108.355C228.81 107.233 228.997 105.668 229.043 103.658L229.498 88.4454H245.166ZM261.241 88.4454L270.985 113.402H267.305L264.536 105.761H254.055L251.216 113.402H247.711L257.525 88.4454H261.241ZM263.554 103.132L259.313 91.6L255.002 103.132H263.554ZM295.468 119.607H292.278V113.402H274.227V119.607H271.037V110.528H273.49C274.447 108.822 275.231 106.38 275.839 103.202C276.445 100.001 276.75 96.6943 276.75 93.2825V88.4454H292.699V110.528H295.468V119.607ZM289.404 110.528V91.3196H279.975V94.7196C279.975 97.7341 279.695 100.725 279.134 103.693C278.596 106.637 277.93 108.916 277.136 110.528H289.404Z" fill="#B1B1B1"/>
<path d="M64.2242 138.261L0 101.181L37.0045 79.7294L101.229 116.809L64.2242 138.261Z" fill="#D1D1D1"/>
<path d="M138.206 63.961V138.121L101.127 116.8V42.6401L138.206 63.961Z" fill="#BFBFBF"/>
<path d="M37.09 37.0798L101.314 0L101.39 42.7727L37.1655 79.8525L37.09 37.0798Z" fill="#A2A2A2"/>
</svg>
