<svg width="54" height="54" viewBox="0 0 54 54" fill="none" xmlns="http://www.w3.org/2000/svg">
<circle cx="27" cy="27.0001" r="26.5" fill="white" stroke="#DEDEDE"/>
<path d="M35.2997 23.5831C35.3003 23.3386 35.1813 23.1089 34.9812 22.9682L27.4816 17.7186C27.2226 17.5368 26.8779 17.5368 26.6189 17.7186L19.1194 22.9682C18.9193 23.1089 18.8003 23.3385 18.8008 23.5831V33.3326C18.8008 33.9292 19.0378 34.5015 19.4597 34.9234C19.8816 35.3453 20.4539 35.5823 21.0505 35.5823H33.0498C33.6464 35.5823 34.2187 35.3453 34.6407 34.9234C35.0626 34.5015 35.2995 33.9292 35.2995 33.3326L35.2997 23.5831ZM23.3004 29.5829H30.8V31.0827H23.3004V29.5829ZM30.8 28.0831L23.3004 28.0829V27.333C23.3004 26.9189 23.6363 26.5831 24.0503 26.5831H30.0501C30.2489 26.5831 30.4398 26.6621 30.5803 26.8028C30.721 26.9433 30.8 27.1342 30.8 27.333L30.8 28.0831ZM23.3004 34.0826V32.5829H30.8V34.0826H23.3004ZM33.7998 33.3328C33.7998 33.5315 33.7208 33.7225 33.5801 33.8629C33.4394 34.0037 33.2487 34.0827 33.0499 34.0827H32.2998V27.333C32.2998 26.7364 32.0628 26.1641 31.6409 25.7422C31.219 25.3203 30.6467 25.0833 30.05 25.0833H24.0503C23.4536 25.0833 22.8813 25.3203 22.4594 25.7422C22.0375 26.1641 21.8005 26.7364 21.8005 27.333V34.0827H21.0504C20.6363 34.0827 20.3005 33.7468 20.3005 33.3328V23.9583L27.0501 19.2336L33.7997 23.9583L33.7998 33.3328Z" fill="#333333"/>
<path d="M27.8006 22.8332C27.8006 23.2475 27.465 23.5831 27.0507 23.5831C26.6364 23.5831 26.3008 23.2475 26.3008 22.8332C26.3008 22.4189 26.6364 22.0833 27.0507 22.0833C27.465 22.0833 27.8006 22.4189 27.8006 22.8332Z" fill="#333333"/>
</svg>
