<svg width="54" height="54" viewBox="0 0 54 54" fill="none" xmlns="http://www.w3.org/2000/svg">
<circle cx="27" cy="27.0001" r="26.5" fill="white" stroke="#DEDEDE"/>
<path d="M34.8354 31.8411H23.3324C22.9547 31.0539 22.2103 30.5061 21.3465 30.3798V20.6004C21.3465 19.8056 21.0305 19.0432 20.4683 18.481C19.9064 17.9188 19.144 17.6031 18.3489 17.6031C17.9349 17.6031 17.5996 17.9384 17.5996 18.3524C17.5996 18.7661 17.9349 19.1017 18.3489 19.1017C18.7465 19.1017 19.1275 19.2596 19.4088 19.5408C19.6897 19.8217 19.8476 20.2031 19.8476 20.6003V30.6046C19.0097 30.9964 18.4404 31.8009 18.349 32.7211C18.2577 33.6417 18.6579 34.5423 19.4025 35.0912C20.1469 35.6403 21.1254 35.7563 21.978 35.397C22.8303 35.0379 23.4304 34.2561 23.5572 33.3398H34.8354C35.2494 33.3398 35.5847 33.0042 35.5847 32.5905C35.5847 32.1765 35.2493 31.8409 34.8354 31.8409L34.8354 31.8411ZM20.9718 34.0894C20.6736 34.0894 20.3877 33.971 20.177 33.7601C19.9661 33.5494 19.8477 33.2635 19.8477 32.9652C19.8477 32.6673 19.9661 32.3814 20.177 32.1704C20.3877 31.9598 20.6736 31.8411 20.9718 31.8411C21.27 31.8411 21.556 31.9598 21.7666 32.1704C21.9776 32.3814 22.096 32.6673 22.096 32.9652C22.096 33.2635 21.9776 33.5494 21.7666 33.7601C21.556 33.971 21.27 34.0894 20.9718 34.0894Z" fill="#333333"/>
<path d="M25.093 30.3423H32.5868C33.183 30.3423 33.7548 30.1055 34.1764 29.684C34.598 29.2624 34.8348 28.6905 34.8348 28.0941V20.6003C34.8348 20.0041 34.598 19.4322 34.1764 19.0106C33.7549 18.589 33.183 18.3523 32.5868 18.3523H25.093C24.4966 18.3523 23.9247 18.5891 23.5031 19.0106C23.0815 19.4322 22.8447 20.0041 22.8447 20.6003V28.0941C22.8447 28.6905 23.0815 29.2624 23.5031 29.684C23.9247 30.1055 24.4966 30.3423 25.093 30.3423ZM24.3434 20.6004C24.3434 20.1866 24.679 19.8511 25.093 19.8511H28.0906V22.0993H28.0903C28.0903 22.5131 28.4259 22.8487 28.8399 22.8487C29.2536 22.8487 29.5892 22.5131 29.5892 22.0993V19.8511H32.5868C32.7855 19.8511 32.976 19.93 33.1166 20.0706C33.2572 20.2112 33.3361 20.4018 33.3361 20.6004V28.0942C33.3361 28.2931 33.2572 28.4836 33.1166 28.6243C32.976 28.7649 32.7855 28.8438 32.5868 28.8438H25.093C24.679 28.8438 24.3434 28.5082 24.3434 28.0942L24.3434 20.6004Z" fill="#333333"/>
</svg>
