<svg width="15" height="18" viewBox="0 0 15 18" fill="none" xmlns="http://www.w3.org/2000/svg">
<path d="M5.24989 13.5001C5.24989 13.9144 4.91428 14.25 4.49994 14.25C4.08586 14.25 3.75 13.9144 3.75 13.5001C3.75 13.086 4.08587 12.7501 4.49994 12.7501C4.91429 12.7501 5.24989 13.086 5.24989 13.5001Z" fill="#EC8B33"/>
<path d="M8.25087 13.5001C8.25087 13.9144 7.91526 14.25 7.50092 14.25C7.08659 14.25 6.75098 13.9144 6.75098 13.5001C6.75098 13.086 7.08659 12.7501 7.50092 12.7501C7.91526 12.7501 8.25087 13.086 8.25087 13.5001Z" fill="#EC8B33"/>
<path d="M11.2509 13.5001C11.2509 13.9144 10.915 14.25 10.5009 14.25C10.0866 14.25 9.75098 13.9144 9.75098 13.5001C9.75098 13.086 10.0866 12.7501 10.5009 12.7501C10.915 12.7501 11.2509 13.086 11.2509 13.5001Z" fill="#EC8B33"/>
<path d="M5.24989 10.5C5.24989 10.9144 4.91428 11.2502 4.49994 11.2502C4.08586 11.2502 3.75 10.9143 3.75 10.5C3.75 10.0859 4.08587 9.75006 4.49994 9.75006C4.91429 9.75006 5.24989 10.0859 5.24989 10.5Z" fill="#EC8B33"/>
<path d="M8.25087 10.5C8.25087 10.9144 7.91526 11.2502 7.50092 11.2502C7.08659 11.2502 6.75098 10.9143 6.75098 10.5C6.75098 10.0859 7.08659 9.75006 7.50092 9.75006C7.91526 9.75006 8.25087 10.0859 8.25087 10.5Z" fill="#EC8B33"/>
<path d="M11.2509 10.5C11.2509 10.9144 10.915 11.2502 10.5009 11.2502C10.0866 11.2502 9.75098 10.9143 9.75098 10.5C9.75098 10.0859 10.0866 9.75006 10.5009 9.75006C10.915 9.75006 11.2509 10.0859 11.2509 10.5Z" fill="#EC8B33"/>
<path d="M15.0005 15.7501V2.24989C15.0005 1.65321 14.7635 1.08087 14.3416 0.658926C13.9196 0.23699 13.3473 0 12.7503 0H2.25016C1.65322 0 1.08087 0.236997 0.658926 0.658926C0.23699 1.08086 0 1.65323 0 2.24989V15.7501C0 16.3468 0.236997 16.9191 0.658926 17.3411C1.08086 17.763 1.65323 18 2.25016 18H12.7503C13.3473 18 13.9196 17.763 14.3416 17.3411C14.7635 16.9191 15.0005 16.3468 15.0005 15.7501ZM1.50027 15.7501V2.24989C1.50027 1.8358 1.83614 1.49994 2.25048 1.49994H12.7507C12.9497 1.49994 13.1404 1.57894 13.2811 1.71967C13.4219 1.86014 13.5009 2.0511 13.5009 2.2499V15.7501C13.5009 15.9489 13.4219 16.1399 13.2811 16.2804C13.1404 16.4211 12.9497 16.5001 12.7507 16.5001H2.25048C1.83613 16.5001 1.50027 16.1642 1.50027 15.7501V15.7501Z" fill="#EC8B33"/>
<path d="M11.2501 2.99988H3.74995C3.3356 2.99988 3 3.33576 3 3.7501V7.50016C3 7.69897 3.079 7.88966 3.21973 8.03039C3.3602 8.17113 3.55115 8.25012 3.74996 8.25012H11.2501C11.4489 8.25012 11.6398 8.17112 11.7803 8.03039C11.9211 7.88966 12 7.69897 12 7.50016V3.7501C12 3.55103 11.921 3.36034 11.7803 3.21961C11.6398 3.07887 11.4489 2.99988 11.2501 2.99988L11.2501 2.99988ZM10.5001 6.74995H4.49989V4.50004H10.5001V6.74995Z" fill="#EC8B33"/>
</svg>
