<svg width="18" height="18" viewBox="0 0 18 18" fill="none" xmlns="http://www.w3.org/2000/svg">
<path d="M17.6905 16.2973L14.462 13.091C16.9829 9.86254 16.7176 5.26296 13.8207 2.36617C12.2948 0.840332 10.2605 0 8.09342 0C5.92639 0 3.89196 0.840332 2.36617 2.36617C0.840332 3.892 0 5.92635 0 8.09342C0 10.2605 0.840332 12.2949 2.36617 13.8207C3.892 15.3465 5.92635 16.1868 8.09342 16.1868C9.88454 16.1868 11.6536 15.5898 13.0688 14.462L16.2752 17.7125C16.4742 17.9115 16.7174 18 16.9829 18C17.2482 18 17.4914 17.8894 17.6906 17.7125C18.0885 17.3366 18.0885 16.6954 17.6904 16.2973L17.6905 16.2973ZM14.1967 8.09338C14.1967 9.72978 13.5555 11.2555 12.4056 12.4054C11.2557 13.5554 9.70783 14.1965 8.09358 14.1965C6.47934 14.1965 4.93151 13.5553 3.78155 12.4054C2.6316 11.2555 1.99044 9.70763 1.99044 8.09338C1.99044 6.45699 2.63164 4.93131 3.78155 3.78136C4.93147 2.6314 6.47934 1.99025 8.09358 1.99025C9.72998 1.99025 11.2557 2.63144 12.4056 3.78136C13.5554 4.93111 14.1967 6.45695 14.1967 8.09338Z" fill="#333333"/>
</svg>
