<svg width="18" height="18" viewBox="0 0 18 18" fill="none" xmlns="http://www.w3.org/2000/svg">
<path d="M7.36376 14.7272C5.41075 14.7272 3.53789 13.9516 2.15675 12.5705C0.775897 11.1896 0 9.31647 0 7.36376C0 5.41075 0.775897 3.5376 2.15675 2.15675C3.53789 0.775897 5.41075 0 7.36376 0C9.31676 0 11.1896 0.775897 12.5708 2.15675C13.9516 3.5376 14.7275 5.41075 14.7275 7.36376C14.7275 9.31647 13.9516 11.1896 12.5708 12.5705C11.1896 13.9516 9.31676 14.7272 7.36376 14.7272ZM7.36376 1.6361C5.84476 1.6361 4.38801 2.23964 3.31384 3.31376C2.23974 4.38786 1.63646 5.84469 1.63646 7.36368C1.63646 8.88268 2.23972 10.3394 3.31384 11.4136C4.38794 12.4874 5.84476 13.091 7.36376 13.091C8.88275 13.091 10.3395 12.4874 11.4137 11.4136C12.4878 10.3395 13.091 8.88268 13.091 7.36368C13.091 5.84469 12.4878 4.38794 11.4137 3.31376C10.3396 2.23966 8.88275 1.6361 7.36376 1.6361Z" fill="#ffffff"/>
<path d="M16.7446 18C16.528 17.9991 16.3206 17.9124 16.1679 17.7586L11.2177 12.8084L11.2179 12.8086C10.8981 12.4888 10.8981 11.9705 11.2179 11.6509C11.5376 11.331 12.0558 11.331 12.3757 11.6509L17.3259 16.6011L17.3256 16.6008C17.5616 16.8351 17.6327 17.1887 17.5051 17.4957C17.3776 17.8025 17.0771 18.002 16.7446 18L16.7446 18Z" fill="#ffffff"/>
</svg>
