<svg width="24" height="24" viewBox="0 0 24 24" fill="none" xmlns="http://www.w3.org/2000/svg">
<path d="M23.5873 21.7297L19.2827 17.4546C22.6439 13.1501 22.2901 7.01729 18.4276 3.15489C16.3931 1.12044 13.6807 0 10.7912 0C7.90186 0 5.18928 1.12044 3.15489 3.15489C1.12044 5.18933 0 7.9018 0 10.7912C0 13.6807 1.12044 16.3932 3.15489 18.4276C5.18933 20.462 7.9018 21.5825 10.7912 21.5825C13.1794 21.5825 15.5381 20.7863 17.4251 19.2827L21.7002 23.6166C21.9655 23.882 22.2899 24 22.6438 24C22.9976 24 23.3219 23.8525 23.5874 23.6166C24.118 23.1154 24.118 22.2605 23.5872 21.7297L23.5873 21.7297ZM18.929 10.7912C18.929 12.973 18.074 15.0073 16.5408 16.5406C15.0076 18.0738 12.9438 18.9287 10.7914 18.9287C8.63911 18.9287 6.57534 18.0738 5.04207 16.5406C3.5088 15.0073 2.65392 12.9435 2.65392 10.7912C2.65392 8.60931 3.50885 6.57508 5.04207 5.04181C6.57529 3.50854 8.63911 2.65366 10.7914 2.65366C12.9733 2.65366 15.0075 3.50859 16.5408 5.04181C18.0738 6.57482 18.929 8.60926 18.929 10.7912Z" fill="#333333"/>
</svg>
