<svg width="44" height="44" viewBox="0 0 44 44" fill="none" xmlns="http://www.w3.org/2000/svg">
<circle cx="22" cy="22" r="22" fill="white"/>
<path d="M29.2034 13.1998L11.7642 20.458C11.7642 20.458 10.9397 20.7577 11.0035 21.3105C11.0691 21.8643 11.7419 22.1176 11.7419 22.1176L16.1299 23.6841C16.1299 23.6841 17.4544 28.2919 17.7151 29.1687C17.9758 30.043 18.1849 30.0636 18.1849 30.0636C18.4277 30.1755 18.6484 29.9973 18.6484 29.9973L21.4834 27.2558L25.9019 30.8498C27.0971 31.4028 27.532 30.2506 27.532 30.2506L30.6369 13.6384C30.6369 12.5319 29.2034 13.1998 29.2034 13.1998ZM26.116 28.9146L21.3889 25.0707L19.9221 26.4887L20.2446 23.4718L26.5455 17.5L17.9567 22.5992L14.1469 21.2393L28.6823 15.1892L26.116 28.9146Z" fill="#333333"/>
</svg>
