<svg width="27" height="18" viewBox="0 0 27 18" fill="none" xmlns="http://www.w3.org/2000/svg">
<path d="M25.9151 8.47835C25.6826 8.13408 20.1369 0 13.0367 0C5.93661 0 0.390312 8.13429 0.158336 8.47835C-0.0527787 8.79241 -0.0527787 9.20294 0.158336 9.51667C0.390886 9.86581 5.93661 18 13.0367 18C20.1369 18 25.6832 9.86571 25.9151 9.52166C26.1282 9.20661 26.1282 8.79348 25.9151 8.47843V8.47835ZM13.0367 16.1378C7.87781 16.1378 3.38022 10.7226 2.08066 8.99992C3.37981 7.27723 7.86384 1.86204 13.0367 1.86204C18.2096 1.86204 22.6933 7.27723 23.9928 8.99992C22.6982 10.7226 18.2096 16.1378 13.0367 16.1378Z" fill="#9D9D9D"/>
<path d="M13.036 3.87793C11.6777 3.87793 10.375 4.41773 9.41426 5.37812C8.45384 6.33887 7.91406 7.64159 7.91406 8.99986C7.91406 10.3581 8.45386 11.6608 9.41426 12.6216C10.375 13.582 11.6777 14.1218 13.036 14.1218C14.3943 14.1218 15.697 13.582 16.6577 12.6216C17.6181 11.6608 18.1579 10.3581 18.1579 8.99986C18.1579 7.64159 17.6181 6.33887 16.6577 5.37812C15.697 4.41771 14.3943 3.87793 13.036 3.87793ZM13.036 12.259C12.1714 12.259 11.3426 11.9157 10.7313 11.3045C10.12 10.6933 9.77677 9.86441 9.77677 8.99978C9.77677 8.13515 10.1201 7.30635 10.7313 6.69507C11.3425 6.08378 12.1714 5.74056 13.036 5.74056C13.9006 5.74056 14.7294 6.08385 15.3407 6.69507C15.952 7.30628 16.2952 8.13515 16.2952 8.99978C16.2952 9.86441 15.9519 10.6932 15.3407 11.3045C14.7295 11.9158 13.9006 12.259 13.036 12.259Z" fill="#9D9D9D"/>
</svg>
