<svg width="61" height="20" viewBox="0 0 61 20" fill="none" xmlns="http://www.w3.org/2000/svg">
<path d="M2.06538 1.56415C1.24099 1.46736 -1.2652 -0.0622974 1.74146 0.540723C4.13404 0.549012 6.5297 0.501959 8.92228 0.554539C9.46727 0.831179 10.1197 1.13822 10.1451 1.83803C10.6071 4.36348 11.4477 6.87788 11.3648 9.46689C10.1397 8.41583 9.69985 6.74232 8.51546 5.67737C7.39247 4.97479 6.54658 3.88213 5.30462 3.35663C4.11793 2.94444 3.29046 1.84356 2.06538 1.56415Z" fill="#F8990D"/>
<path opacity="0.98" d="M38.9035 0.131319C40.5301 -0.255931 42.1343 0.305563 43.7194 0.626416C43.9105 0.784079 44.0902 0.952795 44.259 1.13541C43.9712 2.47969 43.9958 3.91255 43.4761 5.20157C41.399 4.17806 38.4998 3.73278 36.6299 5.30113C36.5908 6.90547 38.3724 7.73255 39.6397 8.28575C41.772 9.12665 43.7056 11.0878 43.5122 13.5413C43.3625 15.5053 42.4744 17.6711 40.6406 18.6641C37.2578 20.4953 32.9785 20.2768 29.4353 19.0155C29.4798 17.5383 29.7945 16.0917 29.9941 14.6367C31.1555 14.9355 32.2485 15.4749 33.4575 15.6048C35.0418 15.8704 37.1281 16.0585 38.2035 14.5841C38.7047 13.0628 36.6821 12.6949 35.8969 11.7682C34.3425 11.0187 32.8511 10.0229 31.8862 8.56515C30.5253 5.79069 32.3007 2.35526 34.929 1.08559C36.1625 0.482569 37.5618 0.352616 38.9035 0.131319Z" fill="#0C457E"/>
<path opacity="0.98" d="M17.2784 0.571464C19.0185 0.535464 20.7671 0.488488 22.5095 0.563174C20.4792 6.01238 18.1504 11.3537 16.0172 16.7725C15.6304 17.7323 15.3479 18.7807 14.6954 19.5967C12.966 19.6271 11.2374 19.6879 9.51419 19.605C8.36664 15.6356 7.50924 11.5916 6.32255 7.63607C6.32792 6.12299 5.35155 4.84511 5.30396 3.3569C6.54592 3.88247 7.39257 4.97506 8.51556 5.67764C9.69995 6.74259 10.1398 8.41609 11.3649 9.46723C11.8546 9.98451 11.8845 10.7701 12.1202 11.4228C12.6928 11.575 11.6773 13.6247 12.7534 13.2457C12.9607 11.4035 13.8956 9.75769 14.5097 8.03437C15.4669 5.55874 16.2107 3.00012 17.2784 0.571464Z" fill="#0C457E"/>
<path opacity="0.98" d="M24.4897 0.562953C26.1247 0.538083 27.7674 0.49103 29.4077 0.557426C28.8381 6.11732 27.5877 11.5914 26.8931 17.1374C26.6973 17.9534 26.9629 18.9907 26.3043 19.5909C24.6609 19.6352 23.0183 19.6767 21.3779 19.6103C22.3904 13.2566 23.3084 6.88906 24.4897 0.562953Z" fill="#0C457E"/>
<path opacity="0.98" d="M51.6172 0.622974C53.3151 0.528867 55.033 0.448654 56.737 0.578684C57.5614 1.29231 56.9282 2.68641 57.4033 3.56331C58.7259 8.87973 59.5142 14.3234 60.8943 19.6315C59.3568 19.6094 57.8155 19.7007 56.2865 19.5928C55.6578 18.965 55.918 17.9497 55.6302 17.1614C53.6306 17.1255 51.631 17.1973 49.6499 16.9125C48.8976 17.5985 48.7572 18.6773 48.4025 19.5873C46.6739 19.6315 44.9476 19.6758 43.2244 19.6067C44.0158 16.6857 45.6561 13.9777 46.5856 11.0595C47.7831 8.60316 48.6735 6.02513 49.8356 3.55778C50.3914 2.56751 50.353 1.01022 51.6172 0.622974ZM53.2376 6.40962C52.3802 8.52011 51.3708 10.6971 50.9671 12.9708C52.1699 13.0344 53.3704 12.9847 54.5824 12.9763C54.5985 10.7164 53.8102 8.55058 53.4372 6.34046L53.2376 6.40962Z" fill="#0C457E"/>
</svg>
