<svg width="44" height="44" viewBox="0 0 44 44" fill="none" xmlns="http://www.w3.org/2000/svg">
<circle cx="22" cy="22" r="22" fill="#F6F6F6"/>
<path d="M22 13C17.0355 13 13 17.0355 13 22C13 24.2935 13.8565 26.471 15.4242 28.1403L13.421 30.0274V31H22C26.9645 31 31 26.9645 31 22C31 17.0355 26.9645 13 22 13ZM22 29.8387H15.3081L17.0935 28.1694L16.4694 27.5452C14.9742 26.0645 14.1613 24.0903 14.1613 22C14.1613 17.6742 17.6742 14.1613 22 14.1613C26.3258 14.1613 29.8387 17.6742 29.8387 22C29.8387 26.3258 26.3258 29.8387 22 29.8387Z" fill="#333333"/>
<path d="M21.8985 24.4098C20.9694 23.8146 20.1856 23.0017 19.6194 22.0436L20.592 21.071V18.4727H17.4565C17.4565 23.0162 21.1291 26.6888 25.6727 26.6888V23.5678H22.7404L21.8985 24.4098Z" fill="#333333"/>
</svg>
