<svg width="45" height="44" viewBox="0 0 45 44" fill="none" xmlns="http://www.w3.org/2000/svg">
<path d="M44.3519 40.7883L35.8677 32.3041C40.1073 26.8341 41.223 19.5636 38.8189 13.0744C36.4148 6.58435 30.8316 1.79545 24.0516 0.407284C17.2723 -0.980306 10.256 1.22895 5.49446 6.25184C0.732928 11.274 -1.09828 18.3985 0.650472 25.0934C2.39858 31.7897 7.47949 37.1087 14.0876 39.1628C20.6965 41.2161 27.8972 39.714 33.133 35.1886L41.5166 43.5721C42.3089 44.194 43.4394 44.1318 44.1577 43.4261C44.8766 42.7197 44.9591 41.5906 44.3512 40.7879L44.3519 40.7883ZM3.94658 20.1653C3.94658 15.9144 5.6346 11.8383 8.64032 8.83267C11.6461 5.82758 15.7223 4.13892 19.9722 4.13892C24.2231 4.13892 28.2992 5.82765 31.3049 8.83267C34.31 11.8385 35.9986 15.9146 35.9986 20.1653C35.9986 24.4155 34.3099 28.4916 31.3049 31.4972C28.2991 34.503 24.2229 36.191 19.9722 36.191C15.7221 36.191 11.6459 34.5029 8.64032 31.4972C5.63469 28.4915 3.94658 24.4153 3.94658 20.1653Z" fill="white"/>
<path d="M28.066 18.161H21.9755V12.0705C21.9755 10.9645 21.0791 10.0674 19.9724 10.0674C18.8664 10.0674 17.9693 10.9645 17.9693 12.0705V18.161H11.8796C10.7728 18.161 9.87646 19.0574 9.87646 20.1641C9.87646 21.2701 10.7729 22.1672 11.8796 22.1672H17.9693V28.2569C17.9693 29.3637 18.8664 30.26 19.9724 30.26C21.0792 30.26 21.9755 29.3636 21.9755 28.2569V22.1672H28.066C29.172 22.1672 30.0691 21.2701 30.0691 20.1641C30.0691 19.0573 29.172 18.161 28.066 18.161Z" fill="white"/>
</svg>
